<?xml version="1.0" standalone="no"?><!DOCTYPE svg PUBLIC "-//W3C//DTD SVG 1.1//EN" "http://www.w3.org/Graphics/SVG/1.1/DTD/svg11.dtd"><svg width="100%" height="100%" viewBox="0 0 500 500" version="1.1" xmlns="http://www.w3.org/2000/svg" xmlns:xlink="http://www.w3.org/1999/xlink" xml:space="preserve" style="fill-rule:evenodd;clip-rule:evenodd;stroke-linejoin:round;stroke-miterlimit:1.41421;"><g><path id="svg_36" d="M290.737,429.137l-81.3133,-51.6814l81.3133,-51.6816l0,103.363l0,-5.68434e-14Z" style="fill:#3271a8;fill-rule:nonzero;"/><path id="svg_37" d="M209.263,375.761l81.3132,51.6814l-81.3132,51.6815l0,-103.363l0,0Z" style="fill:#4881ad;fill-rule:nonzero;"/><path id="svg_1" d="M250,484.997l-0.671191,-0.00107399l-0.670058,-0.00318317l-0.669777,-0.0052951l-0.670308,-0.00741761l-0.669179,-0.00955868l-0.668069,-0.0116245l-0.668578,-0.0137563l-0.668286,-0.0158749l-0.66712,-0.0179722l-0.666837,-0.0200552l-0.666501,-0.0221755l-0.665334,-0.0242298l-0.665851,-0.0263473l-0.665514,-0.0284708l-0.664357,-0.0305221l-0.663162,-0.0325684l-0.663659,-0.0346625l-0.66416,-0.0368359l-0.662121,-0.0388313l-0.661757,-0.040885l-0.661418,-0.0429774l-0.661065,-0.0450355l-0.66065,-0.0471266l-0.659439,-0.049122l-0.659955,-0.0512489l-0.65955,-0.0533456l-0.657442,-0.0552629l-0.657925,-0.0573606l-0.65755,-0.0594608l-0.656297,-0.0614086l-0.656765,-0.0635544l-0.655492,-0.0655348l-0.655031,-0.0675571l-0.654653,-0.0696248l-0.654308,-0.0716636l-0.652965,-0.0736296l-0.652542,-0.0756217l-0.65213,-0.0776922l-0.651687,-0.0796864l-0.651222,-0.0817528l-0.650829,-0.0837555l-0.649561,-0.0857207l-0.64904,-0.0876728l-0.649466,-0.0898641l-0.647362,-0.0916349l-0.647652,-0.0937428l-0.646401,-0.0956621l-0.645956,-0.0976329l-0.646236,-0.0997859l-0.644968,-0.101665l-0.644522,-0.103675l-0.644009,-0.105676l-0.642657,-0.107537l-0.642139,-0.1095l-0.641692,-0.111513l-0.641229,-0.113491l-0.640615,-0.115479l-0.639335,-0.117306l-0.638854,-0.119286l-0.639065,-0.121395l-0.637685,-0.123238l-0.637302,-0.1252l-0.63672,-0.127204l-0.634514,-0.1288l-0.635674,-0.131087l-0.635018,-0.133075l-0.632879,-0.134675l-0.633207,-0.136803l-0.632618,-0.138772l-0.631201,-0.140522l-0.630608,-0.142454l-0.630931,-0.144596l-0.62959,-0.146399l-0.628158,-0.148104l-0.627445,-0.150012l-0.627764,-0.152131l-0.62651,-0.15395l-0.625775,-0.155788l-0.62505,-0.157731l-0.623819,-0.159438l-0.624083,-0.16161l-0.623336,-0.163482l-0.621986,-0.16523l-0.620513,-0.166875l-0.620792,-0.169023l-0.620111,-0.170922l-0.61854,-0.172565l-0.618101,-0.174491l-0.61834,-0.176653l-0.616733,-0.178289l-0.615258,-0.179917l-0.614688,-0.181813l-0.614923,-0.183952l-0.613414,-0.185611l-0.6126,-0.187401l-0.612152,-0.189375l-0.610628,-0.190955l-0.610731,-0.193069l-0.609202,-0.194679l-0.608634,-0.196547l-0.608013,-0.198453l-0.607168,-0.200238l-0.606561,-0.202145l-0.605036,-0.203708l-0.604434,-0.20558l-0.603815,-0.207455l-0.602924,-0.209236l-0.601399,-0.210789l-0.601559,-0.212903l-0.600797,-0.214767l-0.598619,-0.216048l-0.598761,-0.218173l-0.597839,-0.219948l-0.597217,-0.221792l-0.596415,-0.22362l-0.594108,-0.224829l-0.594371,-0.226987l-0.594188,-0.229053l-0.591868,-0.23025l-0.591365,-0.23212l-0.591155,-0.234153l-0.590362,-0.235944l-0.588323,-0.237246l-0.588104,-0.239209l-0.587292,-0.241034l-0.586022,-0.24257l-0.58593,-0.244674l-0.58344,-0.245731l-0.583519,-0.247831l-0.583575,-0.250008l-0.581233,-0.251121l-0.580384,-0.252837l-0.579532,-0.254589l-0.578843,-0.256377l-0.578875,-0.258533l-0.576529,-0.259626l-0.57566,-0.261306l-0.575519,-0.263392l-0.574081,-0.26485l-0.573188,-0.266566l-0.572312,-0.268281l-0.571587,-0.270077l-0.569968,-0.271449l-0.569247,-0.273211l-0.568334,-0.274927l-0.567261,-0.27652l-0.566712,-0.278406l-0.565954,-0.280173l-0.564149,-0.281446l-0.563231,-0.283088l-0.562491,-0.284891l-0.561734,-0.286625l-0.560796,-0.28834l-0.558974,-0.289525l-0.558234,-0.291295l-0.557644,-0.293128l-0.557197,-0.295077l-0.554867,-0.296015l-0.554785,-0.298089l-0.554009,-0.299903l-0.551471,-0.300659l-0.551402,-0.302776l-0.551274,-0.304896l-0.549248,-0.305983l-0.547307,-0.307038l-0.548045,-0.309619l-0.545988,-0.310696l-0.545214,-0.312372l-0.545054,-0.314542l-0.542541,-0.31526l-0.541733,-0.316974l-0.54073,-0.318575l-0.539922,-0.320291l-0.539096,-0.322011l-0.53853,-0.323887l-0.536412,-0.324853l-0.535571,-0.326504l-0.534996,-0.328416l-0.532875,-0.329305l-0.532478,-0.331269l-0.531651,-0.332993l-0.530586,-0.334557l-0.52892,-0.335752l-0.528059,-0.337408l-0.527013,-0.339007l-0.526152,-0.340666l-0.525086,-0.342264l-0.52277,-0.342972l-0.522952,-0.345318l-0.522086,-0.347051l-0.519763,-0.347751l-0.519519,-0.349829l-0.517802,-0.350976l-0.516735,-0.352465l-0.516446,-0.354584l-0.51454,-0.355545l-0.51387,-0.357359l-0.512745,-0.358884l-0.511057,-0.359986l-0.510144,-0.361624l-0.509417,-0.363418l-0.507925,-0.364667l-0.506423,-0.365883l-0.505884,-0.367795l-0.504172,-0.36889l-0.503044,-0.370339l-0.502706,-0.372445l-0.50062,-0.373233l-0.499834,-0.374952l-0.498916,-0.376633l-0.497396,-0.377814l-0.496033,-0.379134l-0.495099,-0.380746l-0.494148,-0.382397l-0.492979,-0.383845l-0.491255,-0.384894l-0.490087,-0.386304l-0.489685,-0.388394l-0.487946,-0.389403l-0.486231,-0.390411l-0.485484,-0.392175l-0.484599,-0.393882l-0.483424,-0.395324l-0.482118,-0.39669l-0.48016,-0.397479l-0.4795,-0.399327l-0.478509,-0.400953l-0.476996,-0.402105l-0.47577,-0.403514l-0.474043,-0.40448l-0.473334,-0.406294l-0.472855,-0.408368l-0.470581,-0.408886l-0.469594,-0.410451l-0.46833,-0.411857l-0.466894,-0.413029l-0.466089,-0.414828l-0.464566,-0.415952l-0.463573,-0.417567l-0.461846,-0.418523l-0.460801,-0.420058l-0.459774,-0.421666l-0.458004,-0.422552l-0.457012,-0.424159l-0.455709,-0.425493l-0.454423,-0.426826l-0.453514,-0.428532l-0.451625,-0.42932l-0.450331,-0.430616l-0.449519,-0.432429l-0.448329,-0.433864l-0.446688,-0.434888l-0.445036,-0.435844l-0.444082,-0.43751l-0.443005,-0.439057l-0.44146,-0.44016l-0.440032,-0.44134l-0.438835,-0.44278l-0.437178,-0.443736l-0.436301,-0.445475l-0.435194,-0.447029l-0.433854,-0.448318l-0.43209,-0.449193l-0.430437,-0.450116l-0.429751,-0.452088l-0.428393,-0.453376l-0.426632,-0.454216l-0.425388,-0.455588l-0.424152,-0.456995l-0.422896,-0.458367l-0.421537,-0.459653l-0.419873,-0.460578l-0.419022,-0.462397l-0.417352,-0.46336l-0.415577,-0.464129l-0.415105,-0.466393l-0.413319,-0.467229l-0.41127,-0.467679l-0.410877,-0.470035l-0.409091,-0.470874l-0.407694,-0.472049l-0.406406,-0.473459l-0.404732,-0.47432l-0.403812,-0.476139l-0.401649,-0.476466l-0.400726,-0.478214l-0.399776,-0.48003l-0.397989,-0.480795l-0.39642,-0.48183l-0.394987,-0.483004l-0.393561,-0.484212l-0.392234,-0.485517l-0.390906,-0.486859l-0.389221,-0.48773l-0.388122,-0.489336l-0.386439,-0.490242l-0.385202,-0.491653l-0.383965,-0.493152l-0.381952,-0.49359l-0.380697,-0.495006l-0.379455,-0.496465l-0.377766,-0.49734l-0.376076,-0.498184l-0.375033,-0.499889l-0.373973,-0.501625l-0.371849,-0.501931l-0.370472,-0.50317l-0.369086,-0.504481l-0.367698,-0.50572l-0.366193,-0.506883l-0.364393,-0.50755l-0.363297,-0.509247l-0.361702,-0.510247l-0.36018,-0.511338l-0.358674,-0.512463l-0.357359,-0.513852l-0.355545,-0.514558l-0.354128,-0.515764l-0.352878,-0.517303l-0.351173,-0.518124l-0.349559,-0.519105l-0.348191,-0.520416l-0.346758,-0.521689l-0.344868,-0.522228l-0.343753,-0.523943l-0.342041,-0.524807l-0.340419,-0.525726l-0.33912,-0.527217l-0.337297,-0.527858l-0.336193,-0.529625l-0.334355,-0.530301l-0.332541,-0.53091l-0.331411,-0.532678l-0.329581,-0.533323l-0.328344,-0.53489l-0.326607,-0.535733l-0.325016,-0.536703l-0.323522,-0.537944l-0.321784,-0.538685l-0.320416,-0.540117l-0.318681,-0.540895l-0.317168,-0.542065l-0.315654,-0.543234l-0.313811,-0.543852l-0.312518,-0.545371l-0.310982,-0.546573l-0.308928,-0.546775l-0.307611,-0.548292l-0.306284,-0.549837l-0.304319,-0.550249l-0.302681,-0.551178l-0.30134,-0.552721l-0.29958,-0.553479l-0.29793,-0.554439l-0.296373,-0.555571l-0.294611,-0.556336l-0.293046,-0.557435l-0.291568,-0.558757l-0.289718,-0.559348l-0.28823,-0.560619l-0.286459,-0.561392l-0.284784,-0.562279l-0.283553,-0.564122l-0.281506,-0.56436l-0.279743,-0.565068l-0.27831,-0.566517l-0.276539,-0.567263l-0.275089,-0.568671l-0.273303,-0.569437l-0.271449,-0.569986l-0.269984,-0.571391l-0.268277,-0.572302l-0.266644,-0.573357l-0.264771,-0.573929l-0.263141,-0.574951l-0.261733,-0.576559l-0.259698,-0.576767l-0.257975,-0.577607l-0.256469,-0.578991l-0.254813,-0.580043l-0.253007,-0.580771l-0.251125,-0.581284l-0.249601,-0.582626l-0.247926,-0.583678l-0.24617,-0.584505l-0.244363,-0.585241l-0.24255,-0.585913l-0.241121,-0.587552l-0.23922,-0.588101l-0.237288,-0.58847l-0.235829,-0.590063l-0.234054,-0.590918l-0.232111,-0.591295l-0.230522,-0.592574l-0.228805,-0.593586l-0.226901,-0.594076l-0.225185,-0.595055l-0.223458,-0.596033l-0.221764,-0.5971l-0.219928,-0.59782l-0.217984,-0.598194l-0.216451,-0.5997l-0.214631,-0.600509l-0.212694,-0.600892l-0.211034,-0.602107l-0.209215,-0.602881l-0.207454,-0.603812l-0.205535,-0.604317l-0.203753,-0.60515l-0.20215,-0.606612l-0.200225,-0.607117l-0.198295,-0.607557l-0.196606,-0.608745l-0.194797,-0.609618l-0.19288,-0.610115l-0.19116,-0.611243l-0.189348,-0.612135l-0.187431,-0.61266l-0.185482,-0.613067l-0.183815,-0.614369l-0.182003,-0.61533l-0.180069,-0.615776l-0.178304,-0.616864l-0.176414,-0.61752l-0.174525,-0.618172l-0.172644,-0.618857l-0.170811,-0.619706l-0.168976,-0.620589l-0.167073,-0.621218l-0.165233,-0.622078l-0.16344,-0.623158l-0.161413,-0.623376l-0.15957,-0.624193l-0.157705,-0.62507l-0.155798,-0.625671l-0.154024,-0.62692l-0.151999,-0.627148l-0.150084,-0.627747l-0.148257,-0.628789l-0.146328,-0.6294l-0.144443,-0.630205l-0.142543,-0.630985l-0.140609,-0.631607l-0.138632,-0.632039l-0.136783,-0.633013l-0.134862,-0.63378l-0.13292,-0.634363l-0.130968,-0.634983l-0.129061,-0.63574l-0.127136,-0.636531l-0.125177,-0.637076l-0.12326,-0.637912l-0.121245,-0.638215l-0.119357,-0.639156l-0.117421,-0.639957l-0.115419,-0.640349l-0.1135,-0.641211l-0.111516,-0.641781l-0.109521,-0.642205l-0.10759,-0.64306l-0.105621,-0.643728l-0.103654,-0.644406l-0.101646,-0.644871l-0.0996965,-0.645657l-0.0976812,-0.646134l-0.0956968,-0.646678l-0.0937608,-0.647713l-0.0917149,-0.647991l-0.0897223,-0.648571l-0.0877432,-0.649345l-0.0857141,-0.649751l-0.0837328,-0.650477l-0.0817286,-0.651172l-0.0796811,-0.651442l-0.0777024,-0.652273l-0.0756996,-0.653059l-0.0736261,-0.653191l-0.0716214,-0.65384l-0.0696113,-0.65461l-0.067575,-0.655099l-0.0655507,-0.655776l-0.0635018,-0.656221l-0.0614374,-0.656492l-0.0594331,-0.657343l-0.0573818,-0.657944l-0.0553303,-0.658369l-0.0532683,-0.658834l-0.051232,-0.65947l-0.0491761,-0.660165l-0.0470895,-0.660275l-0.0450493,-0.661022l-0.0429804,-0.661584l-0.0409071,-0.661969l-0.0388382,-0.662525l-0.0367598,-0.662948l-0.0346971,-0.663654l-0.0325997,-0.663963l-0.0305327,-0.664587l-0.028435,-0.665096l-0.0263403,-0.665223l-0.0242697,-0.666185l-0.0221575,-0.666517l-0.0200575,-0.666613l-0.0179745,-0.667538l-0.015856,-0.667869l-0.0137567,-0.66816l-0.0116443,-0.668694l-0.00954079,-0.66918l-0.00741968,-0.669686l-0.00530566,-0.669998l-0.00318613,-0.670663l-0.00105544,-0.670761l0.00105544,-0.670793l0.00318614,-0.670664l0.00530566,-0.669998l0.00741968,-0.669686l0.00954079,-0.66918l0.0116443,-0.668694l0.0137567,-0.66816l0.015856,-0.667869l0.0179745,-0.667538l0.0200575,-0.666613l0.0221575,-0.666517l0.0242697,-0.666185l0.0263403,-0.665223l0.0284366,-0.665134l0.030531,-0.664515l0.0325976,-0.663955l0.0346992,-0.663695l0.0367598,-0.662948l0.0388382,-0.662525l0.0409071,-0.661969l0.0429804,-0.661584l0.0450493,-0.661022l0.0470895,-0.660275l0.0491761,-0.660165l0.051232,-0.65947l0.0532683,-0.658834l0.0553303,-0.658369l0.0573818,-0.657944l0.0594331,-0.657343l0.0614374,-0.656492l0.0635018,-0.656221l0.0655507,-0.655776l0.067575,-0.655099l0.0696113,-0.65461l0.0716214,-0.65384l0.0736261,-0.653191l0.0756996,-0.653059l0.0777086,-0.652325l0.0796814,-0.651427l0.0817086,-0.651012l0.0837464,-0.650619l0.0857216,-0.649772l0.0877279,-0.649249l0.0897302,-0.648628l0.0917149,-0.647991l0.0937518,-0.647651l0.0957151,-0.64682l0.0976914,-0.646165l0.0996566,-0.645399l0.101656,-0.644969l0.103675,-0.644522l0.105598,-0.643591l0.107589,-0.643075l0.109557,-0.64242l0.111491,-0.641603l0.113487,-0.641172l0.115446,-0.640481l0.117421,-0.63996l0.119343,-0.639062l0.121245,-0.638233l0.123276,-0.637975l0.125161,-0.636996l0.127136,-0.636531l0.129061,-0.63574l0.130968,-0.634983l0.132901,-0.634275l0.134842,-0.633706l0.136821,-0.633207l0.138673,-0.632205l0.140568,-0.631408l0.142522,-0.630909l0.144442,-0.630202l0.14635,-0.629512l0.148281,-0.628869l0.150061,-0.62765l0.151999,-0.627148l0.154024,-0.62692l0.155824,-0.625775l0.157653,-0.624846l0.159569,-0.624226l0.161495,-0.623676l0.163384,-0.622929l0.165204,-0.621987l0.167102,-0.621326l0.168976,-0.620589l0.170811,-0.619706l0.172612,-0.618743l0.174556,-0.618303l0.17648,-0.617735l0.178271,-0.616733l0.180035,-0.61566l0.181932,-0.61509l0.183849,-0.614521l0.185593,-0.613414l0.187357,-0.6124l0.189348,-0.612153l0.19116,-0.611225l0.19288,-0.610133l0.194838,-0.609728l0.196524,-0.608489l0.198337,-0.607703l0.200225,-0.607099l0.202062,-0.606365l0.203886,-0.605565l0.205535,-0.604283l0.207408,-0.603697l0.209215,-0.602863l0.210985,-0.601986l0.212792,-0.601168l0.214531,-0.600213l0.216399,-0.599592l0.21819,-0.59876l0.219877,-0.597645l0.221658,-0.596831l0.223457,-0.59603l0.225184,-0.595071l0.227013,-0.59437l0.228748,-0.593421l0.230464,-0.592442l0.232288,-0.591746l0.233935,-0.590582l0.235707,-0.589792l0.237534,-0.589083l0.239159,-0.587915l0.24093,-0.587104l0.242744,-0.586398l0.24443,-0.585366l0.246038,-0.584191l0.247858,-0.583518l0.2496,-0.582642l0.251264,-0.581606l0.253008,-0.580756l0.25467,-0.579717l0.256395,-0.578842l0.258121,-0.577952l0.259848,-0.577082l0.261583,-0.57621l0.263141,-0.574969l0.26485,-0.574081l0.266566,-0.573188l0.268196,-0.57213l0.269983,-0.571406l0.271613,-0.57033l0.27322,-0.569247l0.275005,-0.568514l0.276538,-0.567261l0.278309,-0.566533l0.280006,-0.565598l0.281509,-0.564328l0.283195,-0.563409l0.284873,-0.562491l0.286643,-0.561734l0.288232,-0.560621l0.289625,-0.559149l0.291472,-0.558592l0.293141,-0.557617l0.294611,-0.556336l0.296373,-0.555571l0.298031,-0.554626l0.299581,-0.553463l0.301136,-0.552347l0.302784,-0.551383l0.304423,-0.55042l0.306073,-0.549458l0.307609,-0.548307l0.309144,-0.547156l0.310764,-0.546172l0.312517,-0.545405l0.314034,-0.54422l0.315542,-0.543042l0.317168,-0.542065l0.318681,-0.540895l0.3203,-0.539921l0.322019,-0.539095l0.323404,-0.537712l0.325016,-0.536739l0.326729,-0.535896l0.3281,-0.53451l0.329704,-0.533521l0.331286,-0.532477l0.332792,-0.53133l0.334356,-0.530267l0.335937,-0.529239l0.337426,-0.528059l0.338989,-0.527013l0.340683,-0.526152l0.342043,-0.524773l0.343484,-0.523551l0.345139,-0.522639l0.346621,-0.521466l0.348053,-0.520227l0.349838,-0.519519l0.351174,-0.518108l0.352595,-0.516886l0.354271,-0.515989l0.355545,-0.51454l0.357359,-0.51387l0.358674,-0.512445l0.36018,-0.511356l0.361852,-0.510441l0.362995,-0.508824l0.364544,-0.507779l0.366193,-0.506865l0.367698,-0.505738l0.369086,-0.504463l0.370473,-0.503188l0.372008,-0.502128l0.373654,-0.501196l0.37487,-0.49969l0.376399,-0.498631l0.377931,-0.497539l0.379125,-0.496033l0.380863,-0.49524l0.382289,-0.494008l0.383629,-0.492701l0.385202,-0.491671l0.386439,-0.490224l0.387949,-0.489135l0.389395,-0.487947l0.39073,-0.48664l0.392411,-0.485754l0.393561,-0.484194l0.394987,-0.483022l0.396783,-0.482253l0.397809,-0.480559l0.399225,-0.479368l0.400909,-0.478468l0.402022,-0.476889l0.403437,-0.475697l0.40511,-0.474781l0.406217,-0.473202l0.407694,-0.472085l0.409285,-0.471061l0.410488,-0.469609l0.411661,-0.468124l0.413123,-0.46699l0.414907,-0.466188l0.415976,-0.464575l0.417152,-0.463119l0.418819,-0.462191l0.42028,-0.461025l0.421332,-0.459412l0.422689,-0.458161l0.42415,-0.456994l0.425596,-0.455829l0.426843,-0.454423l0.428182,-0.453153l0.429538,-0.451864l0.430865,-0.450582l0.432308,-0.449384l0.433421,-0.447871l0.434975,-0.446805l0.436079,-0.445267l0.437619,-0.444201l0.438835,-0.442762l0.440032,-0.441358l0.441686,-0.440367l0.442779,-0.438834l0.444082,-0.43751l0.445265,-0.436068l0.446689,-0.434872l0.448098,-0.433641l0.449052,-0.43198l0.450799,-0.431099l0.452097,-0.429733l0.452804,-0.427861l0.454422,-0.426842l0.455948,-0.425717l0.456771,-0.423934l0.458488,-0.423017l0.459776,-0.421631l0.460557,-0.419853l0.461846,-0.418506l0.463325,-0.417362l0.465064,-0.416398l0.46584,-0.414588l0.466642,-0.412824l0.468582,-0.412079l0.469849,-0.410674l0.470582,-0.408869l0.472084,-0.407702l0.473331,-0.406327l0.47456,-0.404921l0.476031,-0.403736l0.476997,-0.402088l0.478247,-0.400733l0.4795,-0.399327l0.480426,-0.397699l0.482119,-0.396673l0.482886,-0.394885l0.484328,-0.393679l0.486025,-0.39263l0.486504,-0.390612l0.487947,-0.389404l0.489411,-0.388158l0.490087,-0.386322l0.491255,-0.384876l0.492979,-0.383863l0.494148,-0.382379l0.494817,-0.380547l0.496315,-0.379349l0.497681,-0.37803l0.498632,-0.3764l0.499547,-0.374754l0.501196,-0.373662l0.502128,-0.371999l0.503043,-0.370374l0.504755,-0.369299l0.505592,-0.367583l0.506718,-0.366095l0.507926,-0.36465l0.508824,-0.362995l0.510441,-0.361852l0.511356,-0.36018l0.512445,-0.358674l0.51387,-0.357359l0.51454,-0.355545l0.515837,-0.354166l0.517039,-0.352707l0.518415,-0.351373l0.519213,-0.349622l0.520072,-0.347958l0.521776,-0.346828l0.522328,-0.344925l0.523707,-0.343605l0.525087,-0.342229l0.52568,-0.340378l0.527013,-0.338998l0.528376,-0.337629l0.52908,-0.335827l0.530107,-0.334264l0.53149,-0.332892l0.532477,-0.331286l0.533683,-0.329804l0.534348,-0.327991l0.535733,-0.326638l0.536902,-0.325114l0.537712,-0.323404l0.539095,-0.322019l0.539921,-0.3203l0.540895,-0.318681l0.542231,-0.317265l0.542875,-0.315436l0.54422,-0.314043l0.545214,-0.312398l0.545988,-0.310678l0.547706,-0.309455l0.548493,-0.307703l0.54908,-0.305854l0.550251,-0.30434l0.5514,-0.302793l0.5525,-0.301229l0.553666,-0.299681l0.554439,-0.29793l0.555387,-0.296275l0.556503,-0.294709l0.557817,-0.293237l0.558409,-0.291377l0.559149,-0.289625l0.560621,-0.288232l0.561734,-0.286643l0.562491,-0.284873l0.563409,-0.283195l0.564328,-0.281509l0.565598,-0.280006l0.566712,-0.278397l0.567082,-0.276442l0.568334,-0.274927l0.569427,-0.273307l0.57033,-0.271613l0.571406,-0.269983l0.57213,-0.268196l0.573188,-0.266566l0.574081,-0.26485l0.575152,-0.263224l0.576027,-0.261491l0.576898,-0.259774l0.578137,-0.258204l0.578842,-0.256395l0.579717,-0.25467l0.580756,-0.253008l0.581606,-0.251264l0.582642,-0.2496l0.583518,-0.247858l0.584191,-0.246038l0.585366,-0.24443l0.586398,-0.242744l0.587104,-0.24093l0.587915,-0.239159l0.589083,-0.237534l0.589792,-0.235707l0.590582,-0.233935l0.591937,-0.232363l0.592251,-0.230381l0.593229,-0.228683l0.594562,-0.227087l0.595071,-0.225184l0.59603,-0.223457l0.596831,-0.221658l0.597645,-0.219877l0.598955,-0.218261l0.599397,-0.21632l0.600018,-0.21447l0.601363,-0.212861l0.601986,-0.210985l0.602728,-0.209168l0.603815,-0.207455l0.604631,-0.205647l0.605234,-0.203766l0.606167,-0.202005l0.607167,-0.200247l0.607815,-0.198379l0.608634,-0.196565l0.6096,-0.194797l0.610333,-0.192943l0.611026,-0.191088l0.611953,-0.189296l0.6126,-0.187418l0.613414,-0.185593l0.614521,-0.183849l0.61509,-0.181932l0.61566,-0.180035l0.616935,-0.178329l0.617534,-0.176414l0.618101,-0.174508l0.618945,-0.172669l0.619706,-0.170811l0.620589,-0.168976l0.621326,-0.167102l0.62219,-0.165258l0.622726,-0.163322l0.623472,-0.161451l0.62443,-0.159621l0.62505,-0.157705l0.62557,-0.155764l0.626715,-0.153983l0.627353,-0.152049l0.62765,-0.150061l0.628979,-0.148307l0.629592,-0.146363l0.629902,-0.144369l0.630814,-0.142509l0.631614,-0.140614l0.632412,-0.138718l0.633,-0.136767l0.633499,-0.134807l0.634397,-0.132927l0.635052,-0.130986l0.635758,-0.129061l0.636513,-0.127136l0.637094,-0.125177l0.637894,-0.12326l0.638441,-0.121285l0.638854,-0.119295l0.639959,-0.11743l0.640407,-0.115424l0.64102,-0.113472l0.6419,-0.11154l0.642348,-0.109545l0.643075,-0.107589l0.6438,-0.105633l0.644313,-0.103633l0.644759,-0.101632l0.645608,-0.0996889l0.646375,-0.097723l0.646611,-0.0956752l0.647442,-0.0937304l0.6482,-0.0917446l0.648628,-0.0897302l0.649249,-0.0877279l0.649772,-0.0857216l0.650619,-0.0837464l0.651012,-0.0817086l0.651687,-0.0797132l0.65213,-0.0776743l0.652751,-0.0756729l0.653386,-0.0736501l0.654097,-0.0716496l0.654443,-0.0695846l0.65503,-0.067575l0.655703,-0.065538l0.656134,-0.0635023l0.656928,-0.0614765l0.65713,-0.0594049l0.657714,-0.0573691l0.658493,-0.0553423l0.65892,-0.0532767l0.659535,-0.0512342l0.660069,-0.049169l0.660231,-0.0470876l0.661064,-0.0450534l0.661628,-0.0429821l0.661966,-0.0409069l0.66254,-0.038838l0.662902,-0.0367572l0.663659,-0.0346983l0.66421,-0.032611l0.664357,-0.0305131l0.664886,-0.028435l0.665642,-0.0263569l0.665962,-0.0242526l0.666292,-0.0221596l0.667045,-0.0200705l0.667329,-0.0179599l0.66766,-0.01586l0.668369,-0.013761l0.668903,-0.011648l0.668971,-0.00952887l0.669474,-0.00742628l0.670193,-0.00530735l0.670682,-0.00318614l0.670775,-0.00105544l0.670775,0.00105544l0.670682,0.00318614l0.670193,0.00530735l0.669474,0.00742628l0.668971,0.00952887l0.668903,0.011648l0.668369,0.013761l0.66766,0.01586l0.667329,0.0179599l0.667045,0.0200705l0.666292,0.0221596l0.665962,0.0242526l0.665642,0.0263569l0.664886,0.028435l0.664337,0.0305122l0.664247,0.0326119l0.663664,0.0346995l0.662855,0.0367546l0.662556,0.0388379l0.662018,0.0409101l0.661642,0.0429841l0.660992,0.0450497l0.660217,0.0470854l0.660099,0.0491712l0.659501,0.0512315l0.65897,0.0532793l0.658549,0.0553484l0.657664,0.0573663l0.657054,0.059398l0.656943,0.0614763l0.656173,0.0635061l0.655659,0.0655336l0.655135,0.0675839l0.654456,0.0695898l0.653961,0.0716346l0.653401,0.0736498l0.652749,0.0756725l0.652197,0.0776801l0.651721,0.0797196l0.650961,0.0817021l0.650619,0.0837464l0.649715,0.0857141l0.649381,0.0877433l0.648654,0.0897387l0.647963,0.091711l0.647534,0.0937386l0.646717,0.0956935l0.646313,0.0977137l0.645608,0.0996889l0.644826,0.101643l0.644298,0.103633l0.643663,0.10561l0.643091,0.107589l0.64249,0.109569l0.641811,0.111528l0.640888,0.113445l0.640649,0.115464l0.639926,0.117431l0.638637,0.119251l0.638615,0.121314l0.638039,0.123291l0.636915,0.125146l0.636531,0.127136l0.63574,0.129061l0.634983,0.130968l0.63457,0.132963l0.633395,0.134788l0.633018,0.136767l0.632393,0.138718l0.631632,0.140614l0.630796,0.142509l0.629824,0.144347l0.629783,0.146408l0.628768,0.148261l0.627783,0.150084l0.627519,0.152098l0.626312,0.153884l0.625704,0.155788l0.625238,0.157757l0.624433,0.159622l0.623349,0.161424l0.622744,0.163322l0.622063,0.165229l0.62147,0.167131l0.620553,0.168976l0.619516,0.170749l0.619282,0.172763l0.618201,0.174542l0.617288,0.176349l0.616835,0.178295l0.615776,0.180069l0.61509,0.181932l0.6144,0.183813l0.613552,0.185629l0.612829,0.187494l0.611691,0.18922l0.610793,0.19101l0.6106,0.193022l0.609838,0.194879l0.608232,0.196441l0.607849,0.198378l0.607542,0.200377l0.605889,0.201918l0.605252,0.203766l0.604747,0.205693l0.603545,0.207362l0.602606,0.209119l0.602138,0.211032l0.60164,0.212959l0.600002,0.214471l0.599258,0.21627l0.598955,0.218261l0.597788,0.21993l0.596525,0.221551l0.596064,0.223457l0.595344,0.225294l0.594269,0.226975l0.593394,0.22874l0.592383,0.230439l0.591788,0.232305l0.590582,0.233935l0.589792,0.235707l0.589083,0.237534l0.58807,0.239222l0.586932,0.240867l0.586259,0.242679l0.585522,0.244495l0.584191,0.246038l0.583678,0.247926l0.582304,0.249462l0.58164,0.251263l0.581061,0.253149l0.579719,0.254671l0.578661,0.256323l0.578155,0.258204l0.57688,0.259774l0.575709,0.261338l0.575503,0.263377l0.574232,0.264928l0.57302,0.266488l0.571959,0.268116l0.571422,0.269982l0.570674,0.271777l0.569237,0.273224l0.568177,0.274842l0.567431,0.276612l0.566696,0.278398l0.565423,0.279919l0.564328,0.281509l0.563409,0.283195l0.562671,0.284964l0.561356,0.286459l0.560655,0.28823l0.559677,0.289907l0.558028,0.291188l0.557835,0.293237l0.55667,0.294807l0.555203,0.296177l0.554439,0.29793l0.553479,0.29958l0.552516,0.301228l0.551587,0.302895l0.550251,0.30434l0.54908,0.305854l0.548493,0.307703l0.547706,0.309455l0.545988,0.310678l0.54502,0.312287l0.544236,0.314041l0.543068,0.315548l0.542231,0.317265l0.541287,0.318912l0.539692,0.320185l0.538721,0.321784l0.537908,0.323522l0.536902,0.325114l0.535534,0.326517l0.534364,0.32799l0.533882,0.329927l0.532678,0.331411l0.531474,0.332894l0.530109,0.334265l0.529064,0.335828l0.528175,0.3375l0.526808,0.338866l0.525696,0.340377l0.525085,0.342228l0.523723,0.343603l0.522739,0.345196l0.521553,0.346691l0.520297,0.348097l0.519178,0.349624l0.518018,0.351092l0.517037,0.352706l0.516063,0.354309l0.514942,0.355836l0.513434,0.357069l0.512463,0.358674l0.511338,0.36018l0.510247,0.361702l0.508822,0.362994l0.508156,0.364802l0.5067,0.366095l0.50561,0.367583l0.504737,0.369299l0.503061,0.370374l0.502325,0.372159l0.500767,0.373343l0.499779,0.374915l0.498614,0.3764l0.497482,0.377866l0.496747,0.379679l0.495018,0.380716l0.493698,0.382045l0.492561,0.383524l0.491706,0.385215l0.490069,0.386322l0.48921,0.387985l0.488603,0.389927l0.486252,0.390438l0.485385,0.392098l0.484783,0.394034l0.483309,0.395246l0.481663,0.396313l0.480223,0.397516l0.47972,0.399509l0.478247,0.400733l0.477219,0.402275l0.475793,0.403549l0.474356,0.404732l0.473552,0.406517l0.472084,0.407702l0.470582,0.408869l0.469626,0.410479l0.468821,0.412274l0.46707,0.413219l0.465378,0.414193l0.464858,0.416198l0.463771,0.417763l0.461829,0.418507l0.460334,0.41965l0.459327,0.42122l0.458521,0.423015l0.457441,0.424556l0.455707,0.425508l0.454215,0.426631l0.453139,0.428178l0.452089,0.429734l0.450799,0.4311l0.449043,0.431981l0.447986,0.433533l0.446464,0.434653l0.445394,0.436177l0.444298,0.437731l0.44278,0.438835l0.441452,0.440143l0.440386,0.441696l0.438575,0.442536l0.437317,0.443859l0.43663,0.445839l0.434855,0.44669l0.433309,0.447755l0.432195,0.449267l0.431098,0.450816l0.42952,0.451864l0.427743,0.452679l0.427308,0.454899l0.425906,0.45619l0.423471,0.456272l0.422827,0.458281l0.421426,0.459534l0.420298,0.461025l0.419137,0.462562l0.416474,0.462377l0.416234,0.464822l0.414991,0.466313l0.413261,0.467116l0.411625,0.468124l0.410293,0.469354l0.409489,0.471316l0.407481,0.471828l0.406327,0.473331l0.40511,0.474781l0.403326,0.475566l0.402363,0.477283l0.400662,0.478205l0.39892,0.47897l0.398359,0.481224l0.396656,0.482121l0.394886,0.482888l0.393442,0.484058l0.392208,0.485481l0.391286,0.48732l0.389369,0.487949l0.387521,0.488585l0.386775,0.490638l0.385294,0.491811l0.383412,0.492423l0.381963,0.493587l0.381214,0.495661l0.379098,0.496033l0.37785,0.497396l0.376597,0.498916l0.374987,0.499834l0.373628,0.501197l0.371589,0.50155l0.370802,0.503623l0.368855,0.504172l0.367404,0.505297l0.366732,0.507599l0.364633,0.507928l0.362996,0.508826l0.361624,0.510144l0.359986,0.511057l0.358884,0.512745l0.357359,0.51387l0.355545,0.51454l0.354166,0.515837l0.352916,0.517344l0.35094,0.517802l0.34945,0.518903l0.348577,0.520998l0.346604,0.521467l0.344942,0.522328l0.343792,0.52402l0.341821,0.52446l0.340701,0.526152l0.338971,0.527013l0.337444,0.528059l0.336121,0.529558l0.334155,0.529949l0.332591,0.531008l0.331303,0.532475l0.330103,0.534167l0.327983,0.534349l0.326539,0.535571l0.325213,0.537066l0.323494,0.537876l0.321617,0.538438l0.320326,0.539919l0.318964,0.541391l0.316974,0.541733l0.315647,0.543208l0.314121,0.544387l0.312517,0.545405l0.310659,0.546004l0.309057,0.546987l0.307799,0.548646l0.30616,0.549629l0.304037,0.549739l0.30281,0.551382l0.301407,0.552861l0.299395,0.553119l0.298225,0.554971l0.296447,0.555745l0.294243,0.555641l0.293067,0.557442l0.291755,0.559115l0.289888,0.559676l0.287943,0.560095l0.286661,0.561734l0.284855,0.562491l0.283123,0.563231l0.281766,0.564861l0.27982,0.565242l0.278406,0.566712l0.27652,0.567261l0.274579,0.567614l0.273593,0.569967l0.271758,0.570692l0.269735,0.570863l0.268281,0.572312l0.266566,0.573188l0.26485,0.574081l0.263057,0.574786l0.261675,0.576393l0.259922,0.577267l0.257874,0.577399l0.256741,0.579582l0.254553,0.579533l0.252873,0.580384l0.251407,0.581979l0.249368,0.582081l0.247866,0.583517l0.246363,0.584941l0.244324,0.585179l0.242605,0.586021l0.240999,0.587292l0.239245,0.588104l0.237517,0.589083l0.23564,0.589602l0.233851,0.590392l0.232456,0.592128l0.230512,0.592634l0.228462,0.592654l0.227022,0.594369l0.225412,0.595648l0.223584,0.596417l0.221505,0.596445l0.219663,0.597063l0.218208,0.59876l0.21661,0.600175l0.214453,0.600018l0.212662,0.600777l0.211063,0.602181l0.209283,0.603058l0.207408,0.603697l0.205535,0.604283l0.204019,0.605959l0.20211,0.606563l0.20002,0.606506l0.198151,0.607108l0.196798,0.609282l0.194684,0.609331l0.192853,0.609934l0.191453,0.612223l0.189093,0.611355l0.187436,0.6126l0.185575,0.613414l0.183747,0.614119l0.182051,0.615491l0.180152,0.616063l0.178253,0.616734l0.176192,0.616727l0.174754,0.618908l0.172755,0.61935l0.170476,0.618491l0.169058,0.620791l0.167312,0.622138l0.165195,0.621987l0.163269,0.622522l0.161398,0.623268l0.159682,0.624634l0.157696,0.62505l0.155824,0.625775l0.153914,0.62651l0.151968,0.626943l0.150208,0.628265l0.14832,0.629075l0.146341,0.629513l0.144197,0.629173l0.142511,0.630701l0.14089,0.632852l0.138555,0.631793l0.13666,0.63238l0.135027,0.634533l0.132883,0.634276l0.130934,0.634776l0.129136,0.636155l0.127002,0.635909l0.12522,0.637203l0.123218,0.637768l0.121272,0.638233l0.119441,0.639687l0.117306,0.639335l0.115493,0.640689l0.113478,0.641172l0.1115,0.641602l0.109655,0.643047l0.107501,0.642658l0.105539,0.643173l0.103675,0.644522l0.101665,0.644968l0.0996566,0.645399l0.0977953,0.646793l0.0956263,0.646402l0.0936573,0.646813l0.0918723,0.649039l0.0897123,0.648628l0.0877085,0.649039l0.0857957,0.650402l0.0836474,0.649989l0.0816474,0.650382l0.0798188,0.652476l0.0776567,0.652115l0.0756687,0.652638l0.0736882,0.653821l0.0715664,0.65342l0.0696202,0.65461l0.067566,0.6551l0.0655386,0.655566l0.0634611,0.655801l0.0615233,0.657122l0.0594253,0.657553l0.0573997,0.657944l0.0553035,0.65837l0.0532692,0.658624l0.0511814,0.659051l0.0492275,0.660374l0.0470926,0.660695l0.04501,0.660182l0.0430303,0.662214l0.040937,0.662599l0.0387957,0.662106l0.0367455,0.662528l0.0346993,0.663695l0.0326066,0.663955l0.0305599,0.665144l0.0284008,0.664716l0.0263499,0.665013l0.0242608,0.666186l0.0221754,0.666516l0.02008,0.667659l0.0179364,0.66712l0.015855,0.66745l0.0137391,0.667743l0.0116748,0.668902l0.00953476,0.670014l0.0073992,0.668644l0.00533084,0.66979l0.00319108,0.671705l0.00103691,0.670377l-0.00103691,0.670346l-0.00319108,0.671703l-0.00533084,0.66979l-0.0073992,0.668644l-0.00953476,0.670014l-0.0116748,0.668902l-0.0137391,0.667743l-0.015855,0.66745l-0.0179364,0.66712l-0.02008,0.667659l-0.0221754,0.666516l-0.0242608,0.666186l-0.0263499,0.665013l-0.0283992,0.664677l-0.0305615,0.665216l-0.0326087,0.663963l-0.0346971,0.663654l-0.0367455,0.662528l-0.0387957,0.662106l-0.040937,0.662599l-0.0430303,0.662214l-0.04501,0.660182l-0.0470926,0.660695l-0.0492275,0.660374l-0.0511814,0.659051l-0.0532692,0.658624l-0.0553035,0.65837l-0.0573997,0.657944l-0.0594253,0.657553l-0.0615233,0.657122l-0.0634611,0.655801l-0.0655386,0.655566l-0.067566,0.6551l-0.0696202,0.65461l-0.0715664,0.65342l-0.0736882,0.653821l-0.0756687,0.652638l-0.0776506,0.652064l-0.0798185,0.652492l-0.0816674,0.650542l-0.0836339,0.649848l-0.0857882,0.650381l-0.0877238,0.649135l-0.0897044,0.648571l-0.0918723,0.649039l-0.0936662,0.646875l-0.095608,0.64626l-0.0977851,0.646762l-0.0996966,0.645657l-0.101655,0.64487l-0.103654,0.644406l-0.105561,0.64331l-0.107502,0.642643l-0.109619,0.642832l-0.111525,0.641781l-0.113491,0.641211l-0.115465,0.640557l-0.117306,0.639332l-0.119456,0.639781l-0.121272,0.638214l-0.123202,0.637704l-0.125236,0.637283l-0.127002,0.635909l-0.129136,0.636155l-0.130934,0.634776l-0.132902,0.634364l-0.135047,0.634607l-0.136622,0.632186l-0.138515,0.631627l-0.14093,0.633051l-0.142532,0.630778l-0.144198,0.629176l-0.146319,0.6294l-0.148297,0.628995l-0.150232,0.628362l-0.151968,0.626943l-0.153914,0.62651l-0.155798,0.625672l-0.157748,0.625274l-0.159683,0.6246l-0.161316,0.622968l-0.163324,0.622751l-0.165224,0.622079l-0.167283,0.62203l-0.169058,0.620791l-0.170476,0.618491l-0.172787,0.619465l-0.174722,0.618777l-0.176126,0.616512l-0.178286,0.616865l-0.180186,0.616179l-0.182122,0.615731l-0.183712,0.613967l-0.185465,0.613068l-0.18751,0.61286l-0.189093,0.611337l-0.191453,0.612241l-0.192853,0.609915l-0.194643,0.609221l-0.196881,0.609538l-0.19811,0.606962l-0.20002,0.606525l-0.202198,0.606811l-0.203885,0.605544l-0.205535,0.604317l-0.207454,0.603812l-0.209283,0.603076l-0.211111,0.602302l-0.212564,0.600501l-0.214552,0.600315l-0.216662,0.600283l-0.218002,0.598194l-0.219714,0.597238l-0.221612,0.596714l-0.223585,0.59642l-0.225412,0.595633l-0.22691,0.594076l-0.228518,0.592819l-0.23057,0.592766l-0.232279,0.591677l-0.23397,0.590727l-0.235762,0.589873l-0.23727,0.588471l-0.239306,0.588291l-0.24119,0.587741l-0.242412,0.585536l-0.244257,0.585054l-0.246495,0.585255l-0.247934,0.583677l-0.249369,0.582065l-0.251268,0.581657l-0.252872,0.580399l-0.254696,0.579858l-0.256815,0.579731l-0.257728,0.577053l-0.259772,0.576951l-0.261825,0.576742l-0.263057,0.574768l-0.264771,0.573929l-0.266644,0.573357l-0.268362,0.572483l-0.269736,0.570847l-0.271594,0.570348l-0.273675,0.570157l-0.274663,0.567771l-0.276521,0.567264l-0.278407,0.566696l-0.279558,0.564712l-0.281764,0.564893l-0.283482,0.563944l-0.284766,0.562279l-0.286477,0.561392l-0.287942,0.560092l-0.289982,0.559874l-0.29185,0.559281l-0.292971,0.55726l-0.294243,0.555641l-0.296447,0.555745l-0.298125,0.554784l-0.299393,0.553135l-0.301611,0.553235l-0.302708,0.551177l-0.303933,0.549567l-0.30637,0.550007l-0.307801,0.54863l-0.308842,0.546605l-0.310877,0.546405l-0.312518,0.545371l-0.313899,0.544019l-0.315759,0.543401l-0.316974,0.541733l-0.318964,0.541391l-0.320443,0.540116l-0.321383,0.538027l-0.323612,0.538108l-0.325213,0.53703l-0.326418,0.535407l-0.328227,0.534729l-0.329981,0.533969l-0.331428,0.532677l-0.332339,0.530589l-0.334154,0.529983l-0.336378,0.529944l-0.337315,0.527858l-0.339103,0.527217l-0.340437,0.525726l-0.341819,0.524494l-0.344061,0.524411l-0.344671,0.521917l-0.34674,0.52169l-0.348716,0.521187l-0.349171,0.518489l-0.350939,0.517819l-0.3532,0.51776l-0.354023,0.515612l-0.355545,0.514558l-0.357359,0.513852l-0.358884,0.512763l-0.359986,0.511039l-0.361473,0.50995l-0.363298,0.509249l-0.364481,0.507699l-0.366732,0.507617l-0.367404,0.505279l-0.368855,0.50419l-0.370802,0.503605l-0.37143,0.501353l-0.373947,0.501626l-0.375151,0.500033l-0.376273,0.498469l-0.377685,0.497198l-0.379428,0.496465l-0.381048,0.495427l-0.381626,0.493169l-0.383749,0.492873l-0.385294,0.491793l-0.386775,0.490656l-0.387695,0.488786l-0.389195,0.487731l-0.391462,0.48754l-0.392032,0.485245l-0.393442,0.484076l-0.394886,0.48287l-0.396293,0.481697l-0.398539,0.481459l-0.399472,0.479632l-0.400479,0.477951l-0.40199,0.476859l-0.403701,0.476008l-0.404732,0.47432l-0.406517,0.473588l-0.407481,0.471792l-0.409295,0.471129l-0.410681,0.469781l-0.411234,0.46768l-0.413457,0.467355l-0.41519,0.466518l-0.415835,0.464377l-0.416674,0.462617l-0.419339,0.462768l-0.419891,0.460578l-0.42163,0.459774l-0.423034,0.458487l-0.423472,0.456273l-0.425698,0.455949l-0.427097,0.454692l-0.427954,0.452902l-0.429734,0.452089l-0.43067,0.45035l-0.431978,0.449076l-0.433742,0.448202l-0.435074,0.446915l-0.436852,0.446047l-0.436876,0.443394l-0.438575,0.442554l-0.440386,0.441678l-0.441227,0.439936l-0.443005,0.439058l-0.444298,0.437731l-0.445165,0.435952l-0.446463,0.43467l-0.448217,0.433756l-0.449511,0.43243l-0.450332,0.430617l-0.451616,0.429321l-0.45385,0.428849l-0.454217,0.426615l-0.455468,0.425285l-0.457683,0.424781l-0.458037,0.42255l-0.459326,0.421255l-0.460578,0.419855l-0.461829,0.418525l-0.464019,0.417969l-0.46436,0.415752l-0.465627,0.414433l-0.467323,0.413424l-0.468569,0.412052l-0.469371,0.410256l-0.470581,0.408886l-0.472855,0.408368l-0.473555,0.406483l-0.473839,0.40429l-0.475532,0.403327l-0.477217,0.402292l-0.478509,0.400953l-0.47972,0.399509l-0.479957,0.397296l-0.481662,0.39633l-0.483846,0.395685l-0.485054,0.394237l-0.484844,0.391643l-0.485978,0.390237l-0.488602,0.389926l-0.489484,0.38822l-0.490069,0.386304l-0.491706,0.385233l-0.492561,0.383506l-0.493698,0.382063l-0.4953,0.380915l-0.496465,0.379464l-0.497198,0.377649l-0.498898,0.376633l-0.500066,0.375112l-0.500191,0.372914l-0.502903,0.372605l-0.503062,0.37034l-0.504154,0.36889l-0.505902,0.367795l-0.506405,0.365883l-0.508154,0.364819l-0.509415,0.363417l-0.50995,0.361473l-0.511039,0.359986l-0.512763,0.358884l-0.513434,0.357069l-0.514942,0.355836l-0.516672,0.354727l-0.516733,0.352463l-0.517405,0.350694l-0.519485,0.34983l-0.519988,0.34789l-0.521863,0.346915l-0.523363,0.34559l-0.522786,0.342971l-0.525084,0.342263l-0.526168,0.340664l-0.526809,0.338876l-0.527858,0.337279l-0.528904,0.335753l-0.530588,0.334558l-0.531635,0.332994l-0.532679,0.331394l-0.533074,0.329428l-0.535012,0.328414l-0.535371,0.326382l-0.536412,0.324853l-0.538726,0.324005l-0.538722,0.321776l-0.539693,0.320177l-0.541122,0.318806l-0.541733,0.316974l-0.542733,0.315371l-0.54507,0.314541l-0.545021,0.312261l-0.545988,0.310696l-0.548045,0.309619l-0.547307,0.307038l-0.549248,0.305983l-0.551274,0.304896l-0.551589,0.302878l-0.551487,0.300658l-0.553822,0.299801l-0.554785,0.298089l-0.554684,0.295917l-0.557364,0.295175l-0.557662,0.293128l-0.557854,0.291106l-0.559502,0.289807l-0.56083,0.288339l-0.561356,0.286441l-0.562671,0.284982l-0.563231,0.283088l-0.564149,0.281446l-0.565779,0.280086l-0.566696,0.278407l-0.567611,0.276691l-0.568177,0.274842l-0.569057,0.273129l-0.570312,0.271613l-0.571602,0.270076l-0.57214,0.268201l-0.57302,0.266488l-0.574232,0.264928l-0.57587,0.263545l-0.575342,0.261154l-0.576511,0.259626l-0.578893,0.258533l-0.578662,0.256305l-0.579534,0.25459l-0.58069,0.252978l-0.581267,0.25112l-0.583237,0.249871l-0.583679,0.247899l-0.58344,0.245731l-0.586086,0.244739l-0.585882,0.242505l-0.58712,0.240971l-0.58826,0.239273l-0.588323,0.237246l-0.590362,0.235944l-0.591155,0.234153l-0.591216,0.232062l-0.592,0.230308l-0.594353,0.22911l-0.594077,0.226875l-0.594381,0.224939l-0.596449,0.223619l-0.596912,0.221686l-0.597983,0.220001l-0.598761,0.218173l-0.59848,0.215998l-0.600781,0.214768l-0.601836,0.213001l-0.601551,0.210835l-0.602802,0.209187l-0.603545,0.207362l-0.604551,0.205626l-0.605054,0.203708l-0.606283,0.202058l-0.607542,0.200368l-0.608047,0.198452l-0.608233,0.196423l-0.609441,0.194761l-0.610998,0.193147l-0.610394,0.190876l-0.61189,0.1893l-0.61283,0.187476l-0.613552,0.185647l-0.614801,0.183915l-0.614688,0.181813l-0.615374,0.179951l-0.616633,0.178255l-0.618094,0.176588l-0.618201,0.174524l-0.618878,0.172659l-0.619921,0.17086l-0.620756,0.169022l-0.620657,0.166904l-0.621859,0.165201l-0.623354,0.163482l-0.623961,0.161583l-0.623821,0.159439l-0.625238,0.157783l-0.62591,0.155812l-0.626107,0.153851l-0.627929,0.152179l-0.627578,0.150035l-0.627946,0.148058l-0.629782,0.146443l-0.630853,0.144574l-0.63059,0.142454l-0.631219,0.140522l-0.6326,0.138772l-0.633225,0.136803l-0.632774,0.134656l-0.635191,0.133111l-0.635605,0.131069l-0.634496,0.1288l-0.636738,0.127204l-0.637123,0.125168l-0.637831,0.123269l-0.639239,0.121424l-0.638638,0.119242l-0.639301,0.117307l-0.640857,0.11552l-0.641097,0.113464l-0.641602,0.1115l-0.642282,0.109525l-0.642672,0.107537l-0.643872,0.105653l-0.644507,0.103676l-0.645036,0.101676l-0.646236,0.0997859l-0.645894,0.0976235l-0.646507,0.0956804l-0.647744,0.0937511l-0.647124,0.0916012l-0.649492,0.0898727l-0.649172,0.0876881l-0.649505,0.0857132l-0.650829,0.0837555l-0.651171,0.0817464l-0.651722,0.0796928l-0.652196,0.077698l-0.652539,0.0756214l-0.65298,0.0736293l-0.654171,0.0716487l-0.654666,0.06963l-0.655136,0.067566l-0.655449,0.0655305l-0.656804,0.0635582l-0.656313,0.0614083l-0.657474,0.0594539l-0.657874,0.0573577l-0.657498,0.0552691l-0.659601,0.0533482l-0.659921,0.0512463l-0.659469,0.0491243l-0.660637,0.0471243l-0.660992,0.0450318l-0.661431,0.0429794l-0.661809,0.0408882l-0.662136,0.0388312l-0.664114,0.0368334l-0.663665,0.0346637l-0.663199,0.0325694l-0.664337,0.0305212l-0.665514,0.0284708l-0.665851,0.0263473l-0.665334,0.0242298l-0.666501,0.0221755l-0.666837,0.0200552l-0.66712,0.0179722l-0.668286,0.0158749l-0.668578,0.0137563l-0.668069,0.0116245l-0.669179,0.00955868l-0.670308,0.00741761l-0.669777,0.0052951l-0.670058,0.00318317l-0.671191,0.00107399ZM250,422.621l0.473126,-0.000757063l0.473405,-0.00224896l0.472832,-0.0037381l0.471416,-0.00521667l0.47169,-0.00673771l0.471946,-0.00821193l0.470521,-0.0096812l0.469958,-0.0111637l0.470209,-0.0126674l0.469638,-0.0141245l0.469028,-0.0156053l0.469309,-0.017091l0.467877,-0.0185136l0.467298,-0.0199911l0.46756,-0.0214808l0.467783,-0.0229726l0.46634,-0.0243573l0.464976,-0.0257887l0.466038,-0.0273309l0.465388,-0.0287529l0.464789,-0.0302017l0.464252,-0.0316284l0.463692,-0.0330759l0.463883,-0.0345549l0.462454,-0.0359119l0.461798,-0.03735l0.462864,-0.0389082l0.461511,-0.0402375l0.460935,-0.0416813l0.461119,-0.0431449l0.45959,-0.044474l0.459908,-0.0459807l0.459244,-0.0473632l0.458616,-0.0487782l0.458134,-0.0501775l0.458287,-0.0516759l0.45769,-0.0530407l0.456996,-0.0544431l0.456371,-0.0558053l0.455885,-0.0572307l0.455189,-0.0585785l0.455415,-0.0600998l0.45471,-0.0614208l0.45323,-0.0627152l0.45456,-0.0643436l0.452903,-0.0655507l0.452981,-0.0670393l0.452494,-0.0683921l0.451054,-0.0696477l0.451156,-0.0711148l0.450525,-0.0724717l0.450061,-0.0738509l0.450162,-0.0753245l0.449393,-0.0766325l0.448913,-0.0780139l0.44832,-0.0793457l0.447399,-0.0806473l0.447735,-0.0821559l0.4473,-0.0835167l0.445539,-0.0846306l0.445727,-0.0861425l0.445274,-0.087478l0.4445,-0.0887996l0.445521,-0.0904386l0.443252,-0.0914038l0.442446,-0.0927191l0.443642,-0.0944085l0.442031,-0.095497l0.441375,-0.0968235l0.441596,-0.0983082l0.440943,-0.0996116l0.43952,-0.100726l0.43931,-0.102153l0.439864,-0.103712l0.439073,-0.104969l0.437378,-0.105999l0.43798,-0.107623l0.436957,-0.108775l0.436286,-0.1101l0.436482,-0.111558l0.434999,-0.112648l0.434385,-0.113923l0.434538,-0.115438l0.434518,-0.116848l0.433016,-0.117904l0.43263,-0.11924l0.432331,-0.120615l0.431665,-0.121863l0.430428,-0.122972l0.430608,-0.124479l0.430524,-0.125896l0.429867,-0.127147l0.428411,-0.128157l0.428318,-0.1296l0.427637,-0.130822l0.427234,-0.132173l0.427387,-0.133648l0.42544,-0.134489l0.425532,-0.135989l0.425397,-0.137378l0.424241,-0.138462l0.423281,-0.139598l0.423136,-0.14102l0.423022,-0.142422l0.422061,-0.143556l0.421662,-0.144872l0.421002,-0.146098l0.420849,-0.147502l0.419099,-0.148327l0.418689,-0.149673l0.419587,-0.151434l0.41784,-0.15225l0.417154,-0.153473l0.41676,-0.154779l0.415819,-0.155898l0.416361,-0.157569l0.4152,-0.158562l0.413459,-0.159379l0.414287,-0.161172l0.413606,-0.162347l0.412141,-0.163247l0.411469,-0.164447l0.411982,-0.166135l0.41052,-0.166977l0.410133,-0.168331l0.409906,-0.169666l0.408116,-0.170422l0.409235,-0.17236l0.407471,-0.17306l0.406326,-0.174079l0.406832,-0.17576l0.40576,-0.17677l0.40539,-0.178088l0.404675,-0.179242l0.402919,-0.179943l0.403652,-0.18178l0.403295,-0.18306l0.401181,-0.183599l0.401171,-0.185084l0.400796,-0.186393l0.400089,-0.187549l0.39904,-0.188542l0.398682,-0.189874l0.398289,-0.191166l0.397582,-0.192321l0.3965,-0.19328l0.395767,-0.194433l0.395036,-0.195561l0.395018,-0.197069l0.394288,-0.198175l0.393201,-0.199149l0.392806,-0.200436l0.391746,-0.201408l0.391304,-0.202685l0.391304,-0.204195l0.389848,-0.204919l0.388376,-0.20568l0.389408,-0.207745l0.387598,-0.208259l0.386852,-0.209415l0.387478,-0.211244l0.385667,-0.21177l0.384212,-0.212499l0.384529,-0.214219l0.384761,-0.21585l0.382253,-0.215955l0.38254,-0.217685l0.381798,-0.218745l0.379978,-0.219272l0.380546,-0.221128l0.379776,-0.222211l0.378617,-0.223065l0.378215,-0.224379l0.377477,-0.225465l0.375642,-0.225922l0.376186,-0.22782l0.375395,-0.228855l0.373985,-0.229569l0.374092,-0.23118l0.372655,-0.231839l0.371869,-0.232923l0.371084,-0.233984l0.370937,-0.235475l0.370153,-0.236512l0.36937,-0.237601l0.36818,-0.238376l0.367372,-0.239463l0.367839,-0.241318l0.36537,-0.241263l0.364978,-0.242624l0.365022,-0.244212l0.363571,-0.244835l0.363821,-0.246596l0.3626,-0.247329l0.36077,-0.24769l0.360546,-0.249145l0.360162,-0.250475l0.358941,-0.251224l0.358712,-0.252684l0.357909,-0.2537l0.35649,-0.25432l0.355859,-0.255482l0.355594,-0.25692l0.354205,-0.25751l0.35394,-0.258978l0.353139,-0.259971l0.351284,-0.260269l0.352043,-0.262462l0.350215,-0.262705l0.349368,-0.263748l0.349116,-0.265173l0.347834,-0.265861l0.346985,-0.266851l0.346573,-0.268206l0.345756,-0.269204l0.344598,-0.269979l0.344159,-0.271289l0.342791,-0.271875l0.341598,-0.27261l0.342147,-0.274741l0.341328,-0.275715l0.339042,-0.275563l0.338175,-0.276556l0.338284,-0.278353l0.337975,-0.279767l0.336137,-0.279934l0.335273,-0.280932l0.334489,-0.281973l0.334039,-0.283318l0.333717,-0.284736l0.331865,-0.284862l0.33049,-0.285418l0.330627,-0.287281l0.329762,-0.28823l0.328428,-0.288814l0.327538,-0.289762l0.327097,-0.291134l0.326289,-0.292134l0.324433,-0.292236l0.324487,-0.294061l0.323601,-0.294989l0.322718,-0.295969l0.32187,-0.296933l0.320027,-0.297021l0.320045,-0.298836l0.31916,-0.299765l0.31733,-0.29985l0.317365,-0.301697l0.316453,-0.302598l0.315077,-0.303105l0.314173,-0.304037l0.31373,-0.305443l0.312831,-0.306357l0.31144,-0.306837l0.310535,-0.307768l0.310055,-0.309148l0.308698,-0.309604l0.30819,-0.310986l0.307752,-0.312344l0.305458,-0.311887l0.304977,-0.313278l0.304051,-0.314188l0.303557,-0.315572l0.302607,-0.316435l0.301223,-0.316893l0.300745,-0.318277l0.299344,-0.318684l0.298362,-0.319564l0.298329,-0.321437l0.296509,-0.321359l0.295533,-0.322269l0.295014,-0.323601l0.293185,-0.323548l0.293531,-0.325896l0.292112,-0.326212l0.290316,-0.326206l0.28979,-0.327566l0.289571,-0.329317l0.287866,-0.329291l0.286811,-0.33014l0.286305,-0.331492l0.284889,-0.331893l0.284294,-0.333175l0.282945,-0.333623l0.282275,-0.334848l0.281344,-0.33577l0.280033,-0.336225l0.278524,-0.336473l0.278328,-0.33831l0.277355,-0.339152l0.276358,-0.34002l0.275387,-0.340866l0.273516,-0.340646l0.27328,-0.342469l0.2724,-0.343428l0.270879,-0.343633l0.269858,-0.344449l0.268961,-0.345444l0.268643,-0.347163l0.266779,-0.346858l0.265836,-0.347834l0.265198,-0.349116l0.264047,-0.349797l0.262728,-0.350186l0.261368,-0.350608l0.261444,-0.352895l0.259569,-0.352535l0.258953,-0.353965l0.257962,-0.354767l0.25607,-0.354443l0.255758,-0.356254l0.254439,-0.356657l0.2537,-0.357909l0.252684,-0.358712l0.251224,-0.358941l0.250185,-0.359745l0.249435,-0.360991l0.248394,-0.361769l0.246654,-0.361573l0.24629,-0.363407l0.245555,-0.364629l0.243386,-0.363762l0.242737,-0.365212l0.242243,-0.366816l0.240229,-0.366152l0.239846,-0.368023l0.238664,-0.368561l0.237314,-0.368962l0.236537,-0.370153l0.234789,-0.369897l0.234389,-0.371751l0.233579,-0.372915l0.231865,-0.372658l0.230627,-0.373197l0.229696,-0.374207l0.22888,-0.37542l0.227399,-0.375507l0.226315,-0.376321l0.225859,-0.37811l0.224174,-0.377853l0.222906,-0.378348l0.222211,-0.379776l0.22074,-0.379878l0.219854,-0.381029l0.218549,-0.381387l0.217443,-0.382184l0.216793,-0.383692l0.215088,-0.383377l0.213771,-0.38377l0.213462,-0.38598l0.212002,-0.386018l0.210291,-0.385729l0.209762,-0.387539l0.208284,-0.387598l0.207154,-0.388347l0.206611,-0.39016l0.205136,-0.390189l0.20345,-0.389877l0.202511,-0.390992l0.201743,-0.392422l0.200461,-0.392832l0.199304,-0.393531l0.197842,-0.393576l0.196691,-0.394335l0.196089,-0.396104l0.194433,-0.395767l0.193449,-0.396848l0.1925,-0.397927l0.19068,-0.39725l0.189832,-0.398646l0.188882,-0.399734l0.187388,-0.399746l0.186237,-0.400459l0.185241,-0.401535l0.184087,-0.402222l0.18245,-0.401896l0.181574,-0.403274l0.180749,-0.404697l0.178793,-0.403606l0.177921,-0.405066l0.176937,-0.406112l0.175551,-0.40638l0.174581,-0.407498l0.173086,-0.407473l0.171596,-0.407421l0.170843,-0.409209l0.169819,-0.410191l0.168051,-0.409513l0.167005,-0.41055l0.16605,-0.411834l0.164628,-0.411897l0.16343,-0.41263l0.162191,-0.413145l0.160848,-0.41352l0.159971,-0.414994l0.158588,-0.415202l0.157095,-0.415109l0.15587,-0.415787l0.154853,-0.416958l0.15376,-0.41796l0.152482,-0.418408l0.15077,-0.417722l0.149828,-0.419216l0.148825,-0.420434l0.147226,-0.420037l0.146003,-0.420727l0.14478,-0.421395l0.143648,-0.422356l0.142245,-0.422471l0.140819,-0.422608l0.139946,-0.424359l0.138804,-0.425265l0.136982,-0.424092l0.136045,-0.425813l0.134845,-0.426461l0.13307,-0.42554l0.132319,-0.427787l0.130849,-0.427667l0.129721,-0.428803l0.128421,-0.429185l0.126838,-0.428824l0.125661,-0.429719l0.124387,-0.430377l0.123435,-0.432072l0.121725,-0.431088l0.120426,-0.431744l0.119624,-0.434l0.117929,-0.433042l0.11647,-0.433085l0.115355,-0.434318l0.114081,-0.434988l0.112915,-0.436053l0.111374,-0.435641l0.110075,-0.43631l0.10885,-0.437134l0.107499,-0.437577l0.106272,-0.438426l0.104773,-0.438227l0.103473,-0.438876l0.102216,-0.439691l0.101102,-0.441137l0.0995943,-0.440755l0.0979005,-0.439764l0.0970197,-0.442409l0.095739,-0.44301l0.0940183,-0.441809l0.0928674,-0.443273l0.0916,-0.444082l0.0901018,-0.443862l0.0889401,-0.445329l0.0874717,-0.445114l0.0861488,-0.445914l0.0848435,-0.446502l0.0833032,-0.446156l0.0821569,-0.447765l0.0807015,-0.4477l0.0793191,-0.448144l0.0779891,-0.448795l0.0765387,-0.448843l0.0752984,-0.450131l0.0739431,-0.450623l0.0724937,-0.450687l0.0711352,-0.45126l0.069737,-0.451633l0.0682915,-0.451688l0.0670507,-0.453228l0.0656966,-0.453711l0.0640726,-0.452646l0.0628224,-0.454212l0.0614461,-0.454686l0.0599638,-0.4546l0.0587001,-0.456109l0.0573096,-0.456514l0.0557406,-0.455663l0.0544295,-0.457067l0.0530544,-0.457591l0.0515559,-0.457446l0.0502598,-0.458885l0.048788,-0.458733l0.0473632,-0.459219l0.0459726,-0.459852l0.0445711,-0.460593l0.0430909,-0.460249l0.041649,-0.460855l0.0402566,-0.461441l0.0388127,-0.462053l0.037429,-0.462775l0.0359768,-0.463264l0.0345127,-0.462978l0.0330465,-0.463633l0.0317112,-0.465123l0.0301509,-0.464006l0.0287041,-0.464598l0.0273054,-0.466007l0.0258766,-0.466561l0.0243849,-0.466412l0.0229333,-0.466957l0.0214404,-0.466681l0.0200017,-0.468135l0.018572,-0.468715l0.01706,-0.468458l0.0156054,-0.469043l0.0140997,-0.468816l0.0126422,-0.470209l0.0111835,-0.470794l0.00969836,-0.471356l0.00822265,-0.471112l0.00670059,-0.470855l0.00523508,-0.473079l0.0037634,-0.472849l0.00224105,-0.471729l0.000733108,-0.473942l-0.000733114,-0.473971l-0.00224105,-0.471728l-0.0037634,-0.472849l-0.00523508,-0.473079l-0.00670059,-0.470855l-0.00822265,-0.471112l-0.00969836,-0.471356l-0.0111835,-0.470794l-0.0126422,-0.470209l-0.0140997,-0.468816l-0.0156054,-0.469043l-0.01706,-0.468458l-0.018572,-0.468715l-0.02,-0.468097l-0.0214421,-0.466692l-0.0229354,-0.467026l-0.0243828,-0.466371l-0.0258766,-0.466561l-0.0273054,-0.466007l-0.0287041,-0.464598l-0.0301509,-0.464006l-0.0317112,-0.465123l-0.0330465,-0.463633l-0.0345127,-0.462978l-0.0359768,-0.463264l-0.037429,-0.462775l-0.0388127,-0.462053l-0.0402566,-0.461441l-0.041649,-0.460855l-0.0430909,-0.460249l-0.0445711,-0.460593l-0.0459726,-0.459852l-0.0473632,-0.459219l-0.048788,-0.458733l-0.0502598,-0.458885l-0.0515559,-0.457446l-0.0530544,-0.457591l-0.0544234,-0.457016l-0.0557403,-0.455647l-0.0573297,-0.456673l-0.0586865,-0.456029l-0.0599563,-0.454518l-0.0614614,-0.454812l-0.0628146,-0.454155l-0.0640726,-0.452646l-0.0657055,-0.453773l-0.0670324,-0.453116l-0.0682814,-0.451596l-0.069777,-0.451891l-0.0711254,-0.451223l-0.0724721,-0.45054l-0.0739656,-0.45076l-0.0752988,-0.450146l-0.076502,-0.448628l-0.0780139,-0.448913l-0.0793324,-0.448245l-0.0806744,-0.447537l-0.0821564,-0.447762l-0.0833175,-0.44622l-0.0848435,-0.446515l-0.086133,-0.44582l-0.0874875,-0.445195l-0.0889401,-0.445329l-0.0901018,-0.443862l-0.0916,-0.444082l-0.0928858,-0.443361l-0.0940379,-0.441913l-0.0957009,-0.442846l-0.0969794,-0.442212l-0.0979409,-0.439933l-0.0996156,-0.440862l-0.101103,-0.44114l-0.102195,-0.43961l-0.10345,-0.438765l-0.104796,-0.438324l-0.106272,-0.438426l-0.107499,-0.437577l-0.108825,-0.43703l-0.110127,-0.436504l-0.111375,-0.435669l-0.112833,-0.435723l-0.114136,-0.435187l-0.115384,-0.43444l-0.116441,-0.432977l-0.117929,-0.433042l-0.119624,-0.434l-0.120458,-0.431858l-0.121693,-0.430988l-0.123368,-0.431827l-0.12442,-0.430477l-0.125695,-0.429836l-0.126909,-0.429064l-0.128387,-0.429093l-0.129611,-0.428425l-0.130923,-0.427897l-0.132319,-0.427799l-0.13307,-0.425528l-0.134845,-0.426474l-0.136004,-0.425672l-0.137065,-0.424349l-0.138763,-0.425149l-0.139946,-0.424347l-0.140908,-0.422886l-0.142111,-0.422087l-0.143647,-0.422328l-0.144826,-0.421541l-0.146003,-0.420715l-0.147275,-0.420188l-0.148727,-0.420158l-0.149927,-0.419483l-0.150822,-0.417891l-0.152276,-0.417842l-0.153811,-0.418073l-0.15496,-0.417258l-0.155871,-0.41579l-0.157096,-0.415124l-0.158476,-0.414908l-0.160027,-0.415128l-0.160907,-0.413683l-0.162014,-0.412694l-0.163549,-0.412904l-0.164751,-0.412229l-0.165804,-0.411222l-0.167066,-0.410675l-0.168242,-0.409991l-0.169626,-0.409737l-0.170776,-0.409023l-0.171728,-0.407734l-0.173154,-0.407633l-0.174582,-0.407512l-0.175412,-0.406058l-0.176936,-0.406097l-0.178064,-0.405392l-0.178867,-0.403786l-0.180603,-0.404382l-0.181423,-0.402927l-0.1826,-0.402214l-0.184087,-0.402235l-0.185162,-0.401353l-0.186315,-0.400628l-0.187468,-0.399917l-0.188883,-0.399749l-0.189668,-0.398302l-0.190763,-0.39741l-0.192584,-0.398114l-0.193451,-0.39685l-0.194434,-0.395782l-0.195826,-0.395573l-0.196689,-0.394306l-0.1982,-0.394288l-0.199215,-0.393381l-0.200278,-0.392459l-0.201742,-0.39242l-0.202604,-0.39116l-0.203546,-0.390073l-0.205041,-0.390007l-0.206611,-0.39016l-0.207154,-0.388347l-0.208184,-0.387412l-0.209761,-0.387524l-0.210495,-0.386104l-0.211899,-0.385844l-0.213358,-0.385778l-0.213982,-0.384148l-0.215089,-0.383391l-0.216577,-0.383311l-0.217661,-0.382554l-0.21855,-0.381414l-0.219631,-0.380631l-0.220852,-0.380071l-0.222211,-0.379776l-0.222906,-0.378348l-0.224291,-0.378049l-0.225624,-0.37773l-0.226433,-0.376491l-0.227399,-0.375532l-0.228758,-0.375196l-0.22994,-0.374617l-0.230505,-0.372998l-0.231991,-0.372859l-0.233327,-0.372526l-0.234388,-0.371724l-0.235046,-0.370314l-0.236409,-0.369951l-0.237445,-0.369166l-0.2384,-0.368166l-0.239844,-0.367996l-0.240498,-0.366575l-0.241972,-0.366405l-0.242874,-0.365404l-0.243525,-0.363982l-0.245277,-0.364215l-0.246289,-0.363393l-0.246938,-0.361989l-0.248251,-0.361574l-0.249435,-0.360979l-0.250185,-0.359757l-0.251224,-0.358929l-0.252684,-0.358725l-0.25355,-0.357684l-0.254741,-0.35708l-0.255606,-0.356055l-0.25607,-0.354431l-0.257962,-0.35478l-0.258953,-0.353952l-0.259569,-0.352547l-0.261285,-0.352667l-0.261687,-0.351037l-0.262891,-0.350417l-0.263723,-0.349381l-0.265034,-0.348887l-0.266166,-0.348267l-0.266613,-0.346655l-0.268306,-0.346715l-0.269298,-0.345864l-0.269858,-0.344462l-0.270879,-0.343621l-0.272574,-0.34366l-0.273107,-0.342252l-0.273692,-0.340866l-0.275211,-0.34066l-0.276358,-0.340008l-0.277355,-0.339164l-0.277965,-0.337856l-0.278704,-0.336678l-0.280584,-0.336887l-0.281161,-0.335576l-0.281903,-0.334393l-0.28332,-0.334065l-0.283916,-0.332745l-0.285079,-0.332089l-0.286305,-0.331517l-0.286617,-0.329892l-0.288254,-0.329748l-0.28918,-0.328873l-0.289986,-0.327776l-0.290515,-0.326442l-0.291713,-0.325766l-0.293731,-0.326106l-0.293388,-0.323785l-0.294607,-0.323155l-0.295737,-0.322479l-0.296716,-0.321596l-0.298331,-0.321438l-0.298154,-0.319354l-0.299133,-0.318447l-0.300956,-0.318501l-0.301437,-0.317118l-0.302178,-0.315999l-0.303339,-0.315321l-0.304484,-0.314635l-0.305196,-0.313502l-0.305679,-0.312126l-0.307312,-0.311909l-0.30819,-0.310973l-0.308698,-0.309616l-0.309829,-0.308911l-0.31076,-0.307992l-0.31144,-0.306837l-0.312601,-0.306132l-0.313729,-0.305429l-0.314404,-0.30426l-0.315544,-0.303554l-0.315985,-0.302177l-0.316893,-0.301223l-0.31804,-0.300521l-0.319161,-0.299779l-0.319806,-0.298613l-0.320269,-0.297245l-0.321386,-0.296498l-0.322716,-0.295943l-0.323846,-0.295224l-0.324487,-0.294048l-0.324682,-0.292472l-0.325791,-0.291688l-0.327347,-0.291343l-0.32779,-0.289997l-0.328176,-0.288593l-0.329508,-0.288008l-0.330626,-0.287267l-0.331261,-0.286084l-0.331868,-0.284889l-0.3332,-0.284294l-0.333777,-0.283097l-0.334488,-0.281959l-0.335535,-0.281152l-0.336137,-0.279934l-0.337709,-0.279547l-0.338283,-0.278339l-0.338712,-0.276995l-0.339314,-0.275796l-0.340787,-0.275291l-0.341873,-0.274509l-0.341597,-0.272609l-0.343066,-0.27208l-0.344159,-0.271301l-0.344598,-0.269967l-0.345757,-0.269217l-0.346573,-0.268193l-0.347267,-0.267081l-0.347552,-0.265645l-0.348831,-0.264957l-0.349653,-0.263951l-0.350502,-0.262933l-0.351467,-0.262033l-0.351862,-0.260684l-0.35314,-0.259997l-0.353356,-0.258539l-0.354497,-0.257723l-0.3553,-0.256707l-0.355858,-0.255468l-0.357083,-0.254743l-0.357612,-0.253502l-0.358413,-0.252461l-0.359241,-0.251434l-0.360162,-0.250475l-0.360546,-0.249145l-0.361379,-0.248108l-0.362297,-0.247147l-0.363208,-0.246168l-0.363878,-0.245042l-0.364712,-0.244005l-0.365287,-0.242817l-0.365994,-0.241688l-0.366902,-0.240717l-0.367371,-0.239437l-0.368652,-0.238694l-0.369371,-0.237595l-0.369836,-0.236322l-0.370777,-0.235354l-0.371563,-0.234292l-0.37203,-0.233024l-0.372657,-0.231852l-0.373284,-0.230681l-0.374632,-0.229948l-0.375233,-0.228781l-0.375696,-0.227498l-0.37646,-0.22642l-0.377478,-0.225472l-0.378216,-0.224386l-0.378452,-0.222974l-0.379278,-0.221919l-0.380211,-0.22092l-0.380813,-0.219742l-0.381799,-0.218764l-0.38254,-0.217673l-0.382592,-0.216165l-0.383575,-0.215185l-0.384697,-0.214288l-0.385235,-0.213071l-0.385669,-0.211784l-0.386449,-0.210689l-0.387195,-0.209576l-0.387943,-0.208463l-0.388888,-0.207455l-0.38907,-0.206048l-0.389675,-0.20484l-0.39113,-0.204097l-0.391129,-0.202601l-0.391921,-0.201485l-0.392807,-0.200449l-0.393201,-0.199136l-0.394111,-0.198098l-0.39484,-0.196961l-0.395392,-0.195743l-0.395767,-0.194426l-0.39668,-0.193374l-0.397582,-0.192321l-0.398109,-0.191086l-0.39832,-0.189695l-0.39922,-0.188621l-0.40027,-0.187634l-0.400796,-0.186393l-0.401171,-0.185084l-0.401548,-0.183767l-0.402929,-0.182906l-0.403284,-0.181602l-0.403657,-0.180273l-0.404676,-0.179255l-0.405205,-0.178007l-0.405389,-0.176615l-0.406458,-0.175586l-0.407259,-0.174472l-0.407472,-0.17308l-0.408485,-0.172038l-0.40868,-0.170651l-0.409529,-0.169522l-0.410322,-0.168389l-0.410709,-0.167073l-0.411223,-0.165816l-0.412039,-0.164669l-0.412713,-0.16348l-0.413034,-0.162135l-0.413904,-0.16101l-0.414419,-0.159749l-0.415009,-0.158508l-0.415398,-0.157198l-0.416204,-0.15603l-0.417147,-0.154929l-0.417348,-0.153545l-0.417647,-0.152192l-0.418808,-0.151146l-0.419468,-0.149939l-0.419295,-0.148415l-0.420262,-0.14729l-0.421198,-0.146166l-0.421662,-0.144872l-0.421864,-0.143489l-0.422824,-0.142349l-0.42353,-0.141145l-0.423281,-0.139604l-0.424439,-0.13852l-0.425398,-0.137391l-0.425135,-0.135855l-0.425838,-0.134615l-0.426988,-0.13353l-0.427433,-0.132222l-0.427637,-0.130835l-0.428318,-0.129587l-0.428813,-0.12829l-0.429466,-0.127028l-0.430122,-0.125779l-0.430406,-0.124408l-0.431235,-0.123197l-0.431665,-0.121876l-0.431926,-0.120496l-0.433035,-0.119351l-0.433219,-0.117965l-0.433706,-0.116636l-0.434334,-0.115365l-0.434996,-0.114083l-0.435611,-0.112807l-0.43587,-0.11142l-0.436285,-0.110081l-0.437162,-0.108845l-0.437775,-0.10756l-0.437789,-0.106111l-0.438868,-0.10492l-0.439042,-0.103524l-0.439309,-0.102128l-0.44055,-0.100968l-0.440737,-0.0995714l-0.441183,-0.0982164l-0.441581,-0.0968625l-0.442238,-0.095548l-0.443021,-0.0942765l-0.443066,-0.0928366l-0.443874,-0.091551l-0.444277,-0.0901924l-0.444707,-0.0888221l-0.445482,-0.0875314l-0.445518,-0.0860897l-0.446163,-0.0847554l-0.4473,-0.0835231l-0.44711,-0.0820476l-0.447607,-0.0806723l-0.448529,-0.0793953l-0.448704,-0.0779713l-0.449185,-0.0766032l-0.449744,-0.075242l-0.45027,-0.0738789l-0.450734,-0.072499l-0.451365,-0.0711478l-0.451682,-0.0697446l-0.452076,-0.0683478l-0.452771,-0.0669957l-0.453113,-0.0655937l-0.453722,-0.0642186l-0.454069,-0.0628186l-0.454501,-0.0614114l-0.455204,-0.0600531l-0.455399,-0.0586181l-0.456095,-0.0572444l-0.456372,-0.0558242l-0.456995,-0.0544305l-0.457481,-0.0530353l-0.457866,-0.0516096l-0.458344,-0.0502068l-0.458825,-0.0487879l-0.459245,-0.0473758l-0.459697,-0.0459471l-0.460221,-0.0445413l-0.460489,-0.0430922l-0.461354,-0.0417067l-0.461721,-0.0402747l-0.461813,-0.0388136l-0.462428,-0.0373884l-0.462875,-0.0359572l-0.463253,-0.034508l-0.464111,-0.0330995l-0.464252,-0.031641l-0.464579,-0.0301818l-0.465179,-0.0287462l-0.465618,-0.0272937l-0.466234,-0.0258522l-0.466341,-0.0243825l-0.466734,-0.0229148l-0.46756,-0.0214745l-0.467927,-0.0200117l-0.468086,-0.0185345l-0.468681,-0.0170682l-0.469237,-0.0156059l-0.469429,-0.0141245l-0.47,-0.0126492l-0.470585,-0.0111786l-0.47073,-0.00969179l-0.471112,-0.00820372l-0.471898,-0.00672174l-0.472249,-0.00523852l-0.472415,-0.00374112l-0.472781,-0.00224599l-0.473542,-0.0007451l-0.473542,0.0007451l-0.472781,0.00224599l-0.472415,0.00374112l-0.472249,0.00523852l-0.471898,0.00672174l-0.471112,0.00820372l-0.47073,0.00969179l-0.470585,0.0111786l-0.47,0.0126492l-0.469429,0.0141245l-0.469237,0.0156059l-0.468681,0.0170682l-0.468086,0.0185345l-0.467927,0.0200117l-0.46754,0.0214736l-0.466741,0.0229158l-0.466377,0.0243837l-0.466188,0.0258496l-0.465603,0.0272936l-0.465231,0.0287494l-0.464623,0.0301838l-0.46421,0.0316373l-0.464067,0.0330973l-0.463283,0.0345102l-0.462841,0.0359545l-0.462449,0.0373911l-0.461899,0.0388197l-0.461701,0.0402719l-0.461278,0.0416998l-0.460473,0.043092l-0.46026,0.0445451l-0.459654,0.0459428l-0.459319,0.0473848l-0.458899,0.0487931l-0.458207,0.0501919l-0.457851,0.0516093l-0.457478,0.053035l-0.457031,0.0544363l-0.456437,0.0558306l-0.456043,0.057238l-0.455399,0.0586181l-0.455148,0.0600456l-0.454602,0.0614267l-0.454156,0.0628272l-0.453484,0.064185l-0.453144,0.0656019l-0.452907,0.067014l-0.452014,0.0683384l-0.451682,0.0697446l-0.451432,0.0711584l-0.450749,0.0724994l-0.450133,0.0738564l-0.449729,0.0752415l-0.449327,0.0766275l-0.448645,0.0779589l-0.448366,0.0793687l-0.447819,0.0807127l-0.447138,0.0820481l-0.447053,0.0834793l-0.446306,0.084785l-0.445694,0.0861212l-0.445334,0.0874999l-0.444694,0.0888221l-0.444289,0.0901923l-0.443775,0.0915331l-0.44324,0.092873l-0.442947,0.094258l-0.442226,0.095548l-0.441594,0.0968625l-0.441171,0.0982164l-0.44075,0.0995713l-0.440441,0.100946l-0.4395,0.102172l-0.438861,0.103479l-0.43894,0.104944l-0.438015,0.10616l-0.437372,0.107462l-0.437235,0.108869l-0.436504,0.110133l-0.435873,0.111421l-0.435519,0.11278l-0.434983,0.114083l-0.434237,0.115336l-0.433789,0.116665l-0.433244,0.117965l-0.432784,0.119289l-0.432263,0.12059l-0.431796,0.121909l-0.43102,0.123131l-0.430276,0.124374l-0.430238,0.125813l-0.429466,0.127028l-0.428692,0.128254l-0.428426,0.129623l-0.427897,0.13091l-0.427201,0.132146l-0.426724,0.133451l-0.426075,0.134694l-0.425404,0.135937l-0.425027,0.137267l-0.424411,0.13852l-0.423686,0.139734l-0.423282,0.141059l-0.422812,0.142349l-0.422011,0.143535l-0.421393,0.144779l-0.421045,0.146118l-0.420383,0.147337l-0.419572,0.148513l-0.419483,0.14994l-0.418669,0.151096l-0.417647,0.152192l-0.417492,0.153598l-0.416872,0.154823l-0.416177,0.156029l-0.415702,0.157308l-0.414715,0.158396l-0.414553,0.159806l-0.414066,0.161068l-0.412885,0.162077l-0.412713,0.16348l-0.412039,0.164669l-0.411223,0.165816l-0.410865,0.167137l-0.41018,0.168326l-0.40936,0.169457l-0.408836,0.170716l-0.408485,0.172038l-0.407632,0.173148l-0.406952,0.174335l-0.406431,0.175585l-0.405725,0.176756l-0.405207,0.178008l-0.404526,0.179182l-0.403644,0.180273l-0.403296,0.181602l-0.402581,0.182754l-0.401868,0.183919l-0.401353,0.185162l-0.400628,0.186315l-0.400099,0.187553l-0.399205,0.18862l-0.398664,0.189859l-0.39795,0.191003l-0.397395,0.192236l-0.39703,0.193544l-0.395782,0.194427l-0.395217,0.195657l-0.39484,0.196961l-0.394111,0.198098l-0.393381,0.199227l-0.392459,0.200265l-0.391894,0.201484l-0.391687,0.202883l-0.39078,0.203908l-0.389662,0.20484l-0.389268,0.206146l-0.388705,0.207357l-0.387943,0.208463l-0.387008,0.209474l-0.386434,0.210688l-0.385855,0.211886l-0.385235,0.213071l-0.384697,0.214288l-0.383575,0.215185l-0.382592,0.216165l-0.38254,0.217673l-0.381605,0.218653l-0.380799,0.21974l-0.380403,0.221032l-0.379278,0.221919l-0.378844,0.223205l-0.378048,0.224271l-0.377073,0.225238l-0.376656,0.226538l-0.375696,0.227498l-0.375034,0.228659l-0.374618,0.229946l-0.373483,0.230804l-0.372858,0.231977l-0.372044,0.233026l-0.371565,0.234294l-0.370792,0.235355l-0.369634,0.236193l-0.369167,0.237464l-0.368638,0.238693l-0.367369,0.239436l-0.366888,0.240716l-0.366405,0.241959l-0.365095,0.242681l-0.364907,0.244144l-0.363905,0.245043l-0.36278,0.245886l-0.362295,0.247146l-0.361574,0.248251l-0.360979,0.249435l-0.359757,0.250185l-0.359229,0.251434l-0.358425,0.252461l-0.357387,0.253352l-0.357081,0.254742l-0.356057,0.25562l-0.355312,0.256707l-0.354485,0.257723l-0.353369,0.258539l-0.353128,0.259997l-0.352089,0.260844l-0.351038,0.261714l-0.350704,0.263094l-0.349666,0.263951l-0.348602,0.264792l-0.347985,0.265976l-0.347499,0.267249l-0.346153,0.267859l-0.345308,0.268877l-0.345018,0.270306l-0.344172,0.271301l-0.342834,0.271906l-0.342253,0.273133l-0.341682,0.274335l-0.340117,0.274759l-0.339739,0.276152l-0.339166,0.277356l-0.337857,0.277979l-0.337475,0.279364l-0.336357,0.280117l-0.335535,0.281152l-0.33471,0.282146l-0.333569,0.28291l-0.332965,0.284104l-0.332089,0.285079l-0.331261,0.286084l-0.330626,0.287267l-0.329285,0.287813l-0.328385,0.288787l-0.32825,0.290393l-0.326916,0.290948l-0.325555,0.291488l-0.325128,0.292874l-0.324501,0.294049l-0.323623,0.295021l-0.322268,0.295532l-0.321358,0.296496l-0.320939,0.297867l-0.319595,0.298405l-0.318924,0.299568l-0.318375,0.300838l-0.3169,0.301224l-0.315986,0.302177l-0.315551,0.303555l-0.314292,0.304152l-0.313504,0.30521l-0.3127,0.306241l-0.31167,0.307058l-0.310761,0.307992l-0.309611,0.308687l-0.309022,0.309954l-0.307992,0.310748l-0.306949,0.311567l-0.306246,0.312698l-0.305091,0.313388l-0.304372,0.314519l-0.303227,0.315204l-0.302396,0.316234l-0.30145,0.317118l-0.300501,0.318026l-0.299567,0.318923l-0.29851,0.319715l-0.297667,0.320716l-0.296808,0.321716l-0.295861,0.322601l-0.294594,0.323155l-0.293736,0.324155l-0.293069,0.325363l-0.29191,0.326014l-0.290645,0.326567l-0.290078,0.327902l-0.289206,0.328873l-0.288013,0.329494l-0.286852,0.330148l-0.286077,0.33126l-0.28519,0.332218l-0.283916,0.332745l-0.283209,0.333935l-0.282228,0.334787l-0.28096,0.335314l-0.280234,0.336489l-0.279254,0.337343l-0.277869,0.337724l-0.277239,0.33903l-0.276254,0.339873l-0.274978,0.340388l-0.274233,0.341546l-0.273127,0.342253l-0.272131,0.34311l-0.271199,0.344035l-0.26998,0.344602l-0.269081,0.345586l-0.26798,0.346294l-0.266918,0.347076l-0.266185,0.348267l-0.264907,0.348744l-0.263951,0.349666l-0.262993,0.350561l-0.261707,0.351038l-0.26085,0.352089l-0.259883,0.352982l-0.258752,0.35366l-0.257623,0.354339l-0.256595,0.355165l-0.255726,0.356204l-0.254742,0.357081l-0.253352,0.357387l-0.252461,0.358425l-0.251434,0.359229l-0.250185,0.359757l-0.249435,0.360979l-0.248146,0.361421l-0.247244,0.362447l-0.246101,0.363087l-0.244843,0.363598l-0.244034,0.364753l-0.242887,0.365405l-0.24176,0.366094l-0.240805,0.367044l-0.239653,0.367683l-0.238388,0.368166l-0.237457,0.369166l-0.236396,0.369951l-0.235261,0.370633l-0.234186,0.371405l-0.233126,0.372204l-0.231977,0.372858l-0.230904,0.373644l-0.229853,0.374456l-0.228554,0.374871l-0.227596,0.375858l-0.226538,0.376656l-0.225238,0.377073l-0.224271,0.378048l-0.223205,0.378844l-0.222017,0.379444l-0.220942,0.380237l-0.219734,0.380799l-0.21855,0.381414l-0.217572,0.382386l-0.216476,0.383142l-0.215279,0.38373l-0.214083,0.384319l-0.212987,0.385096l-0.21188,0.385842l-0.210781,0.386618l-0.209575,0.38718l-0.208363,0.387757l-0.207259,0.388521l-0.206244,0.389465l-0.204936,0.389832l-0.203813,0.390596l-0.202883,0.391687l-0.201484,0.391894l-0.200265,0.392459l-0.199227,0.393381l-0.198098,0.394111l-0.196961,0.39484l-0.195657,0.395217l-0.194515,0.395961l-0.193463,0.396851l-0.192143,0.397215l-0.191089,0.39813l-0.189859,0.398664l-0.18862,0.399205l-0.187553,0.400099l-0.186315,0.400628l-0.185162,0.401353l-0.184003,0.402051l-0.182677,0.402397l-0.181513,0.403112l-0.180355,0.403829l-0.179182,0.404526l-0.178008,0.405207l-0.176756,0.405725l-0.175585,0.406431l-0.174335,0.406952l-0.173148,0.407632l-0.172038,0.408485l-0.170716,0.408836l-0.169457,0.40936l-0.168326,0.41018l-0.167137,0.410865l-0.165816,0.411223l-0.164669,0.412039l-0.16348,0.412713l-0.162152,0.413076l-0.161,0.413875l-0.159725,0.414361l-0.158469,0.414907l-0.157308,0.415702l-0.156029,0.416177l-0.154823,0.416872l-0.153598,0.417492l-0.152263,0.417841l-0.151032,0.418475l-0.149864,0.419288l-0.148582,0.419767l-0.147337,0.420383l-0.146071,0.420911l-0.144826,0.421541l-0.143647,0.422328l-0.142244,0.422481l-0.140986,0.423085l-0.139756,0.423754l-0.138562,0.424554l-0.137308,0.425142l-0.135896,0.425275l-0.134757,0.426274l-0.133395,0.426525l-0.132078,0.427001l-0.130972,0.428097l-0.129623,0.428426l-0.128254,0.428692l-0.127028,0.429466l-0.125813,0.430238l-0.124433,0.430477l-0.12308,0.430818l-0.121845,0.431593l-0.120646,0.432466l-0.119289,0.432784l-0.117965,0.433244l-0.116665,0.433789l-0.11539,0.43444l-0.114036,0.43478l-0.112721,0.435315l-0.111473,0.436077l-0.110185,0.436708l-0.108825,0.437031l-0.107405,0.437167l-0.10621,0.43822l-0.104944,0.43894l-0.103505,0.438971l-0.102201,0.43961l-0.100873,0.44011l-0.0995437,0.440655l-0.0982623,0.441377l-0.0969078,0.4418l-0.0955097,0.442019l-0.0942076,0.44274l-0.0928985,0.443361l-0.091551,0.443874l-0.0901924,0.444277l-0.0888221,0.444707l-0.0875157,0.445402l-0.0861055,0.445612l-0.0848245,0.446514l-0.0834467,0.446845l-0.0820418,0.447138l-0.0807057,0.447745l-0.0793387,0.448245l-0.0780076,0.448913l-0.0766151,0.449254l-0.0752415,0.449729l-0.0738907,0.450342l-0.0724721,0.45054l-0.0711191,0.451223l-0.069777,0.451891l-0.06837,0.452224l-0.0669893,0.452698l-0.0655652,0.452934l-0.0642146,0.453694l-0.0628272,0.454156l-0.0614267,0.454602l-0.0600456,0.455148l-0.0586181,0.455399l-0.057238,0.456043l-0.0558624,0.456697l-0.0544173,0.456806l-0.0529931,0.457171l-0.0516333,0.458076l-0.0502201,0.458465l-0.0487817,0.458732l-0.0473695,0.459219l-0.0459453,0.459641l-0.0445304,0.460173l-0.043131,0.460878l-0.0416869,0.461066l-0.0402439,0.46144l-0.0388317,0.462054l-0.0373994,0.462564l-0.0359568,0.462844l-0.0345031,0.463188l-0.0330954,0.464054l-0.0316413,0.464283l-0.0301855,0.464636l-0.0287493,0.465228l-0.0272934,0.465588l-0.025847,0.466141l-0.0243828,0.466371l-0.0229291,0.467026l-0.0214709,0.467321l-0.0199948,0.467678l-0.018551,0.468505l-0.0170664,0.468458l-0.0155927,0.469043l-0.0141375,0.469861l-0.0126499,0.469791l-0.0111673,0.470376l-0.00969609,0.470939l-0.00820735,0.47132l-0.00672508,0.47169l-0.00522986,0.472038l-0.0037428,0.472641l-0.00224599,0.472768l-0.0007451,0.473555l0.000745093,0.473526l0.002246,0.47277l0.0037428,0.472641l0.00522986,0.472038l0.00672508,0.47169l0.00820735,0.47132l0.00969609,0.470939l0.0111673,0.470376l0.0126499,0.469791l0.0141375,0.469861l0.0155927,0.469043l0.0170664,0.468458l0.018551,0.468505l0.0199964,0.467717l0.0214693,0.46731l0.022927,0.466957l0.0243849,0.466412l0.025847,0.466141l0.0272934,0.465588l0.0287493,0.465228l0.0301855,0.464636l0.0316413,0.464283l0.0330954,0.464054l0.0345031,0.463188l0.0359568,0.462844l0.0373994,0.462564l0.0388317,0.462054l0.0402439,0.46144l0.0416869,0.461066l0.043131,0.460878l0.0445304,0.460173l0.0459453,0.459641l0.0473695,0.459219l0.0487817,0.458732l0.0502201,0.458465l0.0516333,0.458076l0.0529931,0.457171l0.0544234,0.456857l0.0558628,0.456712l0.057218,0.455884l0.0586317,0.45548l0.0600531,0.455229l0.0614114,0.454476l0.062835,0.454212l0.0642146,0.453694l0.0655562,0.452872l0.0670077,0.452809l0.0683802,0.452316l0.069737,0.451633l0.0711289,0.45126l0.0724937,0.450687l0.0738682,0.450205l0.0752411,0.449713l0.0766518,0.449469l0.0779828,0.448795l0.0793255,0.448145l0.0807327,0.447908l0.0820422,0.44714l0.0834325,0.446781l0.0848245,0.446502l0.0861212,0.445707l0.0874999,0.445322l0.0888221,0.444707l0.0901924,0.444277l0.091551,0.443874l0.09288,0.443273l0.0941881,0.442636l0.0955477,0.442183l0.0969481,0.441996l0.098222,0.441208l0.0995223,0.440548l0.100873,0.440108l0.102223,0.439692l0.103528,0.439082l0.10492,0.438843l0.10621,0.43822l0.107405,0.437167l0.10885,0.437134l0.110133,0.436515l0.111472,0.436049l0.112803,0.435645l0.11398,0.434581l0.115361,0.434318l0.116694,0.433897l0.117965,0.433244l0.119289,0.432784l0.120614,0.432351l0.121877,0.431694l0.123147,0.431064l0.1244,0.430377l0.125779,0.430122l0.126957,0.429226l0.128289,0.428783l0.129734,0.428803l0.130897,0.427867l0.132078,0.426988l0.133395,0.426537l0.134757,0.426262l0.135937,0.425416l0.137225,0.424885l0.138604,0.42467l0.139756,0.423767l0.140898,0.422807l0.142378,0.422865l0.143648,0.422356l0.14478,0.421395l0.146071,0.420923l0.147288,0.420232l0.14868,0.420043l0.149764,0.419022l0.15098,0.418306l0.152469,0.418407l0.153546,0.417378l0.154716,0.416572l0.156028,0.416174l0.157307,0.415687l0.158582,0.415201l0.159669,0.414227l0.160942,0.413712l0.162329,0.413527l0.163361,0.412439l0.164546,0.411707l0.166063,0.411835l0.167075,0.410739l0.168135,0.409701l0.169651,0.409814l0.170783,0.409021l0.171905,0.408171l0.17308,0.407472l0.174334,0.406937l0.175724,0.406753l0.176757,0.40574l0.177865,0.404882l0.179108,0.404346l0.180502,0.404143l0.181663,0.403458l0.182527,0.402079l0.184003,0.402039l0.185241,0.401535l0.186237,0.400459l0.187473,0.399927l0.188619,0.399191l0.190023,0.399008l0.191007,0.39797l0.192058,0.397027l0.193462,0.396848l0.194514,0.395946l0.195919,0.395748l0.196963,0.394869l0.19774,0.393398l0.199316,0.393531l0.200449,0.392832l0.201485,0.391896l0.20279,0.391519l0.203717,0.3904l0.205032,0.390014l0.206244,0.389465l0.207259,0.388521l0.208463,0.387943l0.209576,0.387195l0.210577,0.386244l0.211982,0.386017l0.213092,0.385298l0.213873,0.38394l0.215278,0.383715l0.216691,0.383523l0.217354,0.382016l0.218549,0.381387l0.219957,0.381197l0.22083,0.380045l0.222017,0.379444l0.223205,0.378844l0.224155,0.377851l0.225472,0.377453l0.22642,0.376485l0.227597,0.375833l0.228675,0.375095l0.229609,0.374046l0.231026,0.373843l0.231852,0.372657l0.233377,0.372593l0.234188,0.371432l0.235004,0.370216l0.236525,0.370153l0.237326,0.368962l0.238652,0.368561l0.239654,0.36771l0.240536,0.366621l0.242031,0.366505l0.24275,0.365212l0.243895,0.364533l0.245122,0.364012l0.246102,0.363101l0.24696,0.362031l0.248289,0.361617l0.249435,0.360991l0.250185,0.359745l0.251434,0.359241l0.252461,0.358413l0.253502,0.357612l0.25444,0.356658l0.255877,0.356403l0.256595,0.355177l0.257623,0.354326l0.258752,0.353673l0.259883,0.35297l0.261009,0.352317l0.261387,0.350609l0.26283,0.350331l0.264275,0.350083l0.265071,0.348973l0.265855,0.347834l0.267084,0.347279l0.268317,0.346742l0.268745,0.345166l0.26998,0.344589l0.271199,0.344047l0.271958,0.342878l0.2733,0.342471l0.274056,0.341327l0.275155,0.340593l0.276254,0.339885l0.277239,0.339018l0.278232,0.338177l0.279074,0.337137l0.279682,0.335827l0.281143,0.335507l0.2826,0.335241l0.282834,0.333492l0.284294,0.333175l0.285,0.332022l0.286077,0.331235l0.287045,0.330396l0.287625,0.329037l0.289597,0.329318l0.289882,0.327692l0.290446,0.326331l0.292309,0.326459l0.292868,0.325154l0.293533,0.323919l0.295002,0.323601l0.295657,0.322391l0.296601,0.321479l0.297665,0.320715l0.298718,0.319925l0.299778,0.31916l0.30029,0.317803l0.301236,0.316894l0.302824,0.316669l0.303444,0.315455l0.303939,0.314072l0.304872,0.313163l0.306024,0.312459l0.30739,0.312001l0.307992,0.31076l0.309022,0.309941l0.309837,0.308925l0.310535,0.307769l0.31167,0.307058l0.312929,0.306466l0.313505,0.305224l0.314061,0.303929l0.315084,0.303105l0.316453,0.302599l0.317372,0.301698l0.317665,0.300167l0.318923,0.299554l0.319834,0.298628l0.320698,0.297643l0.321842,0.29693l0.322269,0.295558l0.323379,0.294786l0.324501,0.294062l0.324879,0.292638l0.326053,0.291934l0.326666,0.290739l0.327997,0.290157l0.328637,0.289009l0.329539,0.288036l0.330627,0.287281l0.33049,0.285418l0.332086,0.285052l0.333483,0.284546l0.333831,0.283131l0.334711,0.28216l0.335273,0.280932l0.336357,0.280117l0.337742,0.279584l0.337859,0.277993l0.338628,0.276917l0.339467,0.275918l0.340658,0.275184l0.341955,0.274567l0.342254,0.273134l0.34256,0.271701l0.344172,0.271289l0.345019,0.270319l0.345308,0.268865l0.346153,0.267871l0.347216,0.26702l0.348267,0.266191l0.348887,0.265008l0.349381,0.263748l0.350416,0.262866l0.351614,0.262143l0.351511,0.260428l0.353126,0.259971l0.353952,0.258978l0.354193,0.25751l0.355607,0.25692l0.356058,0.255633l0.356488,0.254319l0.357684,0.25355l0.358725,0.252684l0.358929,0.251224l0.359757,0.250185l0.360979,0.249435l0.360965,0.247833l0.362598,0.247328l0.363393,0.246314l0.363598,0.244836l0.365217,0.244351l0.364786,0.242488l0.365781,0.241535l0.367824,0.241317l0.367371,0.239462l0.368166,0.238375l0.369166,0.23747l0.369951,0.236383l0.370952,0.235476l0.371086,0.233985l0.371883,0.232925l0.372857,0.231964l0.37429,0.231303l0.37397,0.229568l0.375196,0.228733l0.376186,0.22782l0.375838,0.226039l0.377072,0.225231l0.378047,0.224264l0.379009,0.223295l0.379776,0.222211l0.380738,0.221239l0.379964,0.219271l0.381605,0.218634l0.38254,0.217685l0.382253,0.215955l0.384761,0.21585l0.384529,0.214219l0.384212,0.212499l0.385854,0.211873l0.387463,0.211243l0.386665,0.209314l0.387598,0.208259l0.389224,0.207647l0.388573,0.205778l0.389835,0.204919l0.390954,0.204006l0.391862,0.202968l0.391718,0.201406l0.392459,0.200252l0.393381,0.19924l0.394288,0.198175l0.395018,0.197069l0.394861,0.195474l0.395782,0.194434l0.39685,0.193451l0.397395,0.192236l0.39813,0.191083l0.399026,0.190038l0.399025,0.188541l0.399917,0.187468l0.400628,0.186315l0.401353,0.185162l0.401501,0.183751l0.402947,0.182908l0.403665,0.18178l0.402906,0.179943l0.404525,0.179169l0.405392,0.178089l0.406097,0.176911l0.406804,0.175759l0.406018,0.173942l0.407631,0.173128l0.409235,0.17236l0.408272,0.170487l0.409736,0.169601l0.409992,0.168267l0.410675,0.167041l0.411982,0.166135l0.411469,0.164447l0.412141,0.163247l0.413457,0.162289l0.41445,0.16123l0.413594,0.159436l0.414906,0.15845l0.416665,0.157679l0.415792,0.155897l0.416485,0.154673l0.417298,0.153526l0.41784,0.15225l0.419448,0.151383l0.418704,0.149674l0.419376,0.148425l0.42097,0.147549l0.42085,0.14605l0.421393,0.144779l0.422208,0.143602l0.423009,0.142422l0.422888,0.140933l0.423686,0.139728l0.424213,0.138461l0.425027,0.137254l0.425801,0.136071l0.425677,0.134568l0.427122,0.133569l0.427002,0.132097l0.427897,0.130898l0.428426,0.129636l0.42829,0.128121l0.429867,0.127147l0.430641,0.12593l0.430478,0.124445l0.430213,0.122907l0.431795,0.121896l0.432668,0.120709l0.432379,0.119178l0.433041,0.117904l0.434601,0.116878l0.434441,0.115409l0.434373,0.113923l0.434907,0.112621l0.436484,0.111558l0.436504,0.110152l0.43703,0.108799l0.437577,0.107524l0.437605,0.106048l0.439145,0.104993l0.439683,0.103666l0.439501,0.102197l0.439412,0.100704l0.440956,0.0996115l0.441583,0.0983082l0.441387,0.0968235l0.442019,0.095497l0.443568,0.09439l0.442619,0.0927555l0.443153,0.0913859l0.445533,0.0904386l0.444487,0.0887996l0.445126,0.0874465l0.445902,0.086174l0.445682,0.0846601l0.447053,0.083473l0.447762,0.0821564l0.447611,0.0806877l0.448157,0.0793191l0.448854,0.0780015l0.449536,0.0766568l0.450147,0.0753241l0.449924,0.0738284l0.45054,0.0724721l0.451223,0.0711254l0.451054,0.0696477l0.452432,0.0683828l0.453117,0.0670577l0.452934,0.0655589l0.454323,0.06431l0.453317,0.0627238l0.454811,0.0614361l0.455358,0.0600923l0.455189,0.0585785l0.455834,0.0572242l0.456437,0.0558117l0.457032,0.054449l0.457688,0.0530404l0.458272,0.0516756l0.457997,0.0501625l0.458689,0.0487834l0.459318,0.0473721l0.459865,0.0459764l0.459629,0.0444778l0.461104,0.0431446l0.460859,0.0416744l0.46149,0.0402346l0.46295,0.0389143l0.461819,0.0373527l0.46242,0.0359093l0.463913,0.0345572l0.463648,0.0330736l0.46421,0.0316246l0.464833,0.0302038l0.46544,0.0287561l0.466023,0.0273308l0.464929,0.0257861l0.466376,0.0243585l0.467789,0.0229735l0.46754,0.0214798l0.467298,0.0199911l0.467877,0.0185136l0.469309,0.017091l0.469028,0.0156053l0.469638,0.0141245l0.470209,0.0126674l0.469958,0.0111637l0.470521,0.0096812l0.471946,0.00821193l0.47169,0.00673771l0.471416,0.00521667l0.472832,0.0037381l0.473405,0.00224896l0.473126,0.000757063Z" style="fill:#545454;"/><path id="svg_30" d="M290.737,124.239l-81.3144,-51.6814l81.3144,-51.6816l0,103.363l0,-5.68434e-14Z" style="fill:#3d70a0;fill-rule:nonzero;"/><path id="svg_31" d="M209.262,71.9534l81.3148,51.6814l-81.3148,51.6815l2.84217e-14,-103.363l0,0Z" style="fill:#3375af;fill-rule:nonzero;"/><path id="svg_32" d="M290.738,226.598l-81.3152,-51.6814l81.3152,-51.6816l0,103.363l0,-5.68434e-14Z" style="fill:#2e6eaa;fill-rule:nonzero;"/><path id="svg_33" d="M209.262,173.224l81.315,51.6814l-81.315,51.6815l0,-103.363l0,0Z" style="fill:#29679e;fill-rule:nonzero;"/><path id="svg_34" d="M290.738,327.868l-81.3145,-51.6814l81.3145,-51.6816l0,103.363l0,-5.68434e-14Z" style="fill:#4577a5;fill-rule:nonzero;"/><path id="svg_35" d="M209.263,274.493l81.3133,51.6814l-81.3133,51.6815l0,-103.363l0,0Z" style="fill:#3375aa;fill-rule:nonzero;"/></g></svg>